<svg class="•57" xmlns="http://www.w3.org/2000/svg" preserveAspectRatio="xMidYMin meet" fill="none" viewBox="0 0 1500 1500">
    <path fill="url(#prefix__a8)" d="M0 0h1500v1500H0z"></path><defs><linearGradient id="prefix__a8" x1="1500" y1="1500" x2="0" y2="0" gradientUnits="userSpaceOnUse"><stop stop-color="#FFD130"></stop><stop offset="1" stop-color="#FFEEDB"></stop></linearGradient></defs>
    <g clip-path="url(#prefix__clip0_316_3357)"><path d="M1263 1500H289.33l3.73-66.49 22.17-107.35L361 1203l57.62-67.7s38.18-26.49 102.86-54.62 195.37-13.16 195.37-13.16 198.15-21 351.31 38.59S1263 1500 1263 1500z" fill="url(#prefix__paint0_linear_316_3357)"></path><path d="M511.711 1369.31a922.445 922.445 0 00-19 130.69h-20v-.69a924.994 924.994 0 0119.51-134.6 10.03 10.03 0 014.513-6.07 10.03 10.03 0 017.473-1.17c2.549.6 4.759 2.18 6.157 4.39a10.01 10.01 0 011.317 7.45h.03zM1132 1500h-20.2c-2.81-13.91-20.24-98.71-36.65-147.51a9.998 9.998 0 012.79-10.89c1-.89 2.16-1.56 3.42-1.98a9.97 9.97 0 017.74.57c1.18.6 2.24 1.44 3.1 2.45.86 1.02 1.5 2.2 1.9 3.47 18.25 54.24 36.92 148 37.71 151.94.13.64.19 1.3.19 1.95z" fill="#000"></path><path d="M468.421 1100.21s-2.94 37 70.05 74.43c72.99 37.43 99.8 45.62 99.8 45.62s74.66 17.52 117.89 17.09c43.23-.43 122-9.29 122-9.29s82.32-21.7 109.62-40.47c27.299-18.77 89.219-60.09 89.219-60.09s-5.31-35.93-34.95-30.99c0 0-73.479 66.69-188.949 82.12-115.47 15.43-218.59-11.92-218.59-11.92l-122.51-70.64s-32.47-10.07-43.58 4.14z" fill="url(#prefix__paint1_linear_316_3357)"></path><path d="M1273 1500h-20.19c-4.9-24.54-57.1-278.34-131.07-347.58-76.33-71.44-231.579-74.83-235.219-74.9H587.29c-3.459.23-47.569 3.5-97.759 25.85-30.31 13.49-56.9 31.21-79 52.67-27.59 26.74-48.38 59.47-61.79 97.29-55.76 157.15-49.46 245-49.39 245.85v.82h-20c-.66-9.94-4.61-98 50.54-253.36 14.51-40.9 37.07-76.32 67.06-105.28 23.93-23.12 52.6-42.15 85.18-56.57 55.32-24.47 102.42-27.15 104.4-27.25h300.18c1.68 0 41.83.65 92.55 10.67 68.759 13.59 121.289 37 156.129 69.62 34.84 32.62 68.48 103.27 100.21 210.21 23.4 78.84 37.07 149.38 37.2 150.08.13.62.19 1.25.2 1.88z" fill="#000"></path><path d="M463.5 1107.36s74.88 130 312.65 130C1013.92 1237.36 1085 1111 1085 1111M496.359 1145.43l42.11-30.14M578.51 1198.9l27.58-48.52M687.039 1230.64l10.64-56M809.939 1236.42l-4.41-51.42M927.521 1215.06l-26.97-49.27M1030.14 1155.88l-24.54-32.82" stroke="#000" stroke-width="20" stroke-miterlimit="10"></path></g><defs><linearGradient id="prefix__paint0_linear_316_3357" x1="187" y1="998.5" x2="1199.5" y2="1575.5" gradientUnits="userSpaceOnUse"><stop stop-color="#FFA4A4"></stop><stop offset="1" stop-color="#FF4A4A"></stop></linearGradient><linearGradient id="prefix__paint1_linear_316_3357" x1="605" y1="1059.5" x2="1029" y2="1258" gradientUnits="userSpaceOnUse"><stop stop-color="#fff"></stop><stop offset="1" stop-color="#DCDCDC"></stop></linearGradient><clipPath id="prefix__clip0_316_3357"><path fill="#fff" d="M0 0h1500v1500H0z"></path></clipPath></defs>
    <path d="M775 1185c231.41 0 419-168.12 419-375.5 0-207.383-187.59-375.5-419-375.5-231.407 0-419 168.117-419 375.5 0 207.38 187.593 375.5 419 375.5z" fill="url(#prefix__body)"></path><path d="M775 1185c231.41 0 419-168.12 419-375.5 0-207.383-187.59-375.5-419-375.5-231.407 0-419 168.117-419 375.5 0 207.38 187.593 375.5 419 375.5z" stroke="#000" stroke-width="20"></path><defs><linearGradient id="prefix__body" x1="417" y1="495.5" x2="1096" y2="1147" gradientUnits="userSpaceOnUse"><stop stop-color="#BFC7FF"></stop><stop offset="1" stop-color="#8C95CF"></stop></linearGradient></defs>
    <path d="M701.129 783a76.42 76.42 0 00120.5 0M988.75 783a76.436 76.436 0 0060.25 29.41c11.62 0 23.08-2.649 33.52-7.745A76.462 76.462 0 001109.25 783" stroke="#000" stroke-width="20" stroke-miterlimit="10" stroke-linecap="round"></path><path d="M914.5 1058.5c8.9 0 17.6-2.64 25.001-7.58a45.056 45.056 0 0016.574-20.2 45.004 45.004 0 00-32.796-61.355 44.995 44.995 0 00-46.195 19.134A45 45 0 00914.5 1058.5z" fill="#000" stroke="#000" stroke-width="20" stroke-miterlimit="10" stroke-linecap="round"></path>
    <path d="M1086 1006.5c0 43.35-75.66 78.5-169 78.5-93.336 0-169-35.11-169-78.5 0-43.386 75.664-78.5 169-78.5 93.34 0 169 35.146 169 78.5z" fill="url(#prefix__paint0_linear_316_1635)"></path><path d="M905 1002.88L923.13 991a26.139 26.139 0 004.16-40.35v0a26.143 26.143 0 00-19.36-7.63 26.144 26.144 0 00-18.8 8.92L873 970.38M905 1003l18.13 11.88a26.115 26.115 0 0110.312 30.61 26.15 26.15 0 01-6.152 9.73v0a26.233 26.233 0 01-8.883 5.84 26.052 26.052 0 01-10.475 1.81 26.056 26.056 0 01-10.33-2.51 26.14 26.14 0 01-8.472-6.42L873 1035.5" stroke="#000" stroke-width="20" stroke-miterlimit="10" stroke-linecap="round"></path><path d="M1099.27 836a156.437 156.437 0 00-153.41 134 26.565 26.565 0 01-16.18 20.75L919 997.62a6.417 6.417 0 00-2.92 4.75c-.097.96.026 1.94.358 2.84.333.91.867 1.74 1.562 2.41 17.18 16.44 31.57 31.63 42 53a156.43 156.43 0 0073.45 72.93 156.405 156.405 0 00102.91 11.11 156.362 156.362 0 0087.32-55.57 156.458 156.458 0 0033.52-97.93c-.7-86.04-71.79-155.92-157.93-155.16z" fill="url(#prefix__paint1_linear_316_1635)" stroke="#000" stroke-width="20" stroke-miterlimit="10"></path><defs><linearGradient id="prefix__paint0_linear_316_1635" x1="792.5" y1="952.531" x2="1032.33" y2="1093.21" gradientUnits="userSpaceOnUse"><stop stop-color="#9EA6E0"></stop><stop offset=".519" stop-color="#979FD9"></stop><stop offset=".777" stop-color="#949CD7"></stop><stop offset="1" stop-color="#939BD6"></stop></linearGradient><linearGradient id="prefix__paint1_linear_316_1635" x1="985.001" y1="890.001" x2="1232.5" y2="1101" gradientUnits="userSpaceOnUse"><stop stop-color="#F8C5DF"></stop><stop offset="1" stop-color="#E178B0"></stop></linearGradient></defs>
    <path d="M1189.38 568.001a10.407 10.407 0 00-1.98 4.502c-.29 1.637-.18 3.32.31 4.908 23.49 64.7-16.84 79.42-16.84 79.42-17.85 7.34-31.27 2.64-38.16-1.24a10.512 10.512 0 00-10.62.13c-27.22 16.44-55.56 1.29-67.16-6.55a10.383 10.383 0 00-5.55-1.766c-1.98-.048-3.93.471-5.63 1.496-32.85 19.84-57.26 6.36-67.67-1.92a10.527 10.527 0 00-12.05-.74c-32.52 19.74-59.81 4.64-71.37-4.09a10.489 10.489 0 00-12.37-.12c-29.69 20.81-53.63 8.37-64.18.37a10.491 10.491 0 00-12.34-.11c-31.71 22.15-63.62 7.45-76.9-.71a10.492 10.492 0 00-12.24 1c-26.85 22.5-57.29 17.5-70 14a10.467 10.467 0 00-10.48 3c-26.07 28-51.91 28.25-64.16 26.29a10.376 10.376 0 00-10.64 4.9c-13.53 23.17-40.52 28.09-53.48 29.09a10.494 10.494 0 00-9 6.76c-8 20.93-37.11 30.28-49 33.28a10.472 10.472 0 00-7 5.94c-17.51 39.88-52 34.16-62.87 31.16a10.711 10.711 0 00-6.8.41c-42.71 17.18-53-18.53-55.42-33.83a10.586 10.586 0 00-7-8.32c-27.18-9.49-21.71-33-16.44-45.55a10.547 10.547 0 00-3.85-12.84c-26.85-18.17-18.73-43.06-12.5-55a10.38 10.38 0 00-2.09-12.3c-25.49-24.15-8.28-49.19.52-59a10.518 10.518 0 002.11-10.34c-15-45.36-1.2-75 15.37-79.67a10.443 10.443 0 007.38-12.32c-7.9-34.74 18.12-56.24 33.22-60.1a10.482 10.482 0 007.94-10.14c-.26-44.36 39.11-48.82 56.69-48.6a10.422 10.422 0 0010.17-7.49c12.15-42.17 52.24-42.15 69.95-39.93a10.472 10.472 0 0011.09-6.75c13.32-35.63 45.83-32.24 60.79-28.51a10.463 10.463 0 0011.42-4.63c17.35-27.85 54-24.3 69.76-21.25a10.522 10.522 0 0011.05-5c23.28-39.29 62.4-25.7 78.15-18a10.436 10.436 0 0012-2.15c26.1-26.84 58.88-15.61 70.88-6.86 3.76 2.74 8.3 1.63 12.56-.24 53.29-23.45 63.52 11.41 75.49 22.41a10.52 10.52 0 005.442 2.625 10.52 10.52 0 005.988-.805c55.13-24.44 66 11.82 74.17 24.56a10.335 10.335 0 009.07 4.74c15-.51 59.53-12.4 68.82 36 .91 4.74 4.13 8.67 8.9 9.44 14.88 2.39 46.89 9.68 48.24 42.63.1 2.113.84 4.145 2.12 5.833a10.5 10.5 0 005.03 3.627c14 4.78 50 32.66 36.09 66.63a10.34 10.34 0 00-.34 6.767c.65 2.23 2.02 4.178 3.91 5.533 12.36 8.92 34.63 30 17.61 57.42a10.446 10.446 0 00-1.36 7.364 10.437 10.437 0 003.91 6.386c12.51 9.74 32.24 31.07 11.34 58.25z" fill="url(#prefix__paint0_linear_316_38)" stroke="#000" stroke-width="20" stroke-miterlimit="10"></path><defs><linearGradient id="prefix__paint0_linear_316_38" x1="394.001" y1="333.002" x2="1199" y2="763.502" gradientUnits="userSpaceOnUse"><stop stop-color="#FFC4FB"></stop><stop offset="1" stop-color="#FA53EE"></stop></linearGradient></defs>
  </svg>