<svg class="•57" xmlns="http://www.w3.org/2000/svg" preserveAspectRatio="xMidYMin meet" fill="none" viewBox="0 0 1500 1500">
    <path fill="url(#prefix__a4)" d="M0 0h1500v1500H0z"></path><defs><linearGradient id="prefix__a4" x1="0" y1="0" x2="1500" y2="1500" gradientUnits="userSpaceOnUse"><stop stop-color="#FCD8AD"></stop><stop offset="1" stop-color="#EE883D"></stop></linearGradient></defs>
    <g clip-path="url(#prefix__clip0_322_35)"><path d="M289.32 1500l15.53-112.58 30.68-117.3-17.14-45.59s-15-117.74 41.25-161c56.25-43.26 65.45-47.41 65.45-47.41s135.65 171.93 339 168.87c203.35-3.06 328.18-130.19 328.18-130.19l42-46.11 14.44 49.93L1133 1102l-10.73 32.19 38.38 53.64 56.12 125.69 16.09 69.9 16.92 63.54 13.61 53.09-974.07-.05z" fill="url(#prefix__paint0_linear_322_35)"></path><path d="M512.15 1369.42a922.37 922.37 0 00-19 130.58h-20.89v-.72a926.03 926.03 0 0119.52-134.67 10.46 10.46 0 014.679-6.49 10.516 10.516 0 017.896-1.28c2.697.64 5.03 2.33 6.487 4.68a10.46 10.46 0 011.278 7.9h.03zM1132.47 1500h-21.11c-2.86-14.16-20.25-98.69-36.62-147.37-.45-1.3-.63-2.68-.55-4.06.09-1.37.45-2.72 1.06-3.95.61-1.24 1.46-2.34 2.49-3.25 1.04-.91 2.25-1.6 3.55-2.04 1.31-.44 2.69-.61 4.06-.52 1.38.1 2.72.47 3.95 1.08 1.23.62 2.33 1.47 3.23 2.52.9 1.04 1.59 2.25 2.02 3.56 18.26 54.27 36.94 148 37.72 152 .14.67.2 1.35.2 2.03zM429 1140.38c-36.78 29.35-63.66 67.4-79.87 113.1-55.72 157-49.44 244.8-49.37 245.66v.86h-20.9c-.68-10.16-4.54-98.23 50.55-253.51 17.54-49.43 46.65-90.63 86.53-122.45a10.652 10.652 0 013.648-2.06 10.458 10.458 0 018.171.75c1.241.68 2.334 1.59 3.212 2.69a10.526 10.526 0 011.897 3.74 10.435 10.435 0 01-1.104 8.13 10.46 10.46 0 01-2.824 3.09h.06zM1273.43 1500h-21.09c-2.38-11.9-15.44-75.74-36.39-146.32-30.24-101.86-62.93-171.34-94.54-200.93l-2.5-2.36a45.331 45.331 0 00-5.57-4.69 10.454 10.454 0 0112.68-16.62c2.59 1.88 5.04 3.95 7.33 6.19.61.59 1.35 1.3 2.34 2.22 34.83 32.6 68.59 103.39 100.34 210.41 23.4 78.86 37.08 149.42 37.21 150.12.13.65.19 1.32.19 1.98z" fill="#000"></path><path d="M425.09 1016.13S268 1075 329.32 1270.12M425.09 1122.57s52.18 120.38 243.46 131M965.67 1237.2s119-29.84 172-136.28c32.82-65.94-6.64-89.63-6.64-89.63" stroke="#000" stroke-width="20" stroke-miterlimit="10" stroke-linecap="round"></path><path d="M940.6 1346.88l3.847 5.41-15.113 33.35h25.683l-4.47-6.31-.675 2.05h-13.284l11.118-24.37 27.87 39.34h-64.168l22.439-49.5c1.169-2.58 4.908-2.56 6.757.03h-.004zm-2.666 95.5l-1.449 3.26h-40.434c-3.021 0-5.345-3.28-4.165-5.88l16.587-36.61h46.866l-17.405 39.23zm6.651 3.14l17.641-39.77 1.152-2.6h17.102l12.768 17.86-12.867.01-5.185-7.16h-4.369l-9.048 20.39h27.965l-6.254-8.83 12.944.03 10.106 14.21c1.85 2.61.42 5.85-2.59 5.85l-59.365.01z" fill="#fff"></path><path d="M1005.53 1451.78l-109.331.1c-7.548 0-13.362-8.2-10.42-14.71l42.527-94.07c2.916-6.45 12.266-6.4 16.878.09l66.806 93.98c4.62 6.5 1.03 14.6-6.46 14.61" fill="#fff"></path><path d="M908.716 1402.61l-16.833 37.14c-1.179 2.61 1.145 5.89 4.165 5.89h41.246l19.089-43.03h-47.667zm7.967 11.26h21.692l-2.054 4.62h-21.736l2.098-4.62zm12.59 20.51h-21.886l2.097-4.63h21.842l-2.053 4.63zM975.957 1396.9h-64.801l22.685-50.05c1.169-2.58 4.908-2.56 6.757.03l3.846 5.42-15.112 33.34h25.683l-4.47-6.31-.674 2.05h-13.285l11.118-24.37 28.253 39.89zM1003.95 1445.51h-60.182l19.04-42.9h17.285l13.155 18.4-12.866.01-5.186-7.15h-4.368l-9.049 20.38h27.966l-6.254-8.83 12.944.03 10.105 14.21c1.85 2.61.42 5.85-2.59 5.85" fill="#E970E1"></path></g><defs><linearGradient id="prefix__paint0_linear_322_35" x1="386" y1="1050" x2="1222.5" y2="1500" gradientUnits="userSpaceOnUse"><stop stop-color="#FFC3FB"></stop><stop offset="1" stop-color="#DC3FD1"></stop></linearGradient><clipPath id="prefix__clip0_322_35"><path fill="#fff" d="M0 0h1500v1500H0z"></path></clipPath></defs>
    <path d="M775 1185c231.41 0 419-168.12 419-375.5 0-207.383-187.59-375.5-419-375.5-231.407 0-419 168.117-419 375.5 0 207.38 187.593 375.5 419 375.5z" fill="url(#prefix__body)"></path><path d="M775 1185c231.41 0 419-168.12 419-375.5 0-207.383-187.59-375.5-419-375.5-231.407 0-419 168.117-419 375.5 0 207.38 187.593 375.5 419 375.5z" stroke="#000" stroke-width="20"></path><defs><linearGradient id="prefix__body" x1="417" y1="495.5" x2="1096" y2="1147" gradientUnits="userSpaceOnUse"><stop stop-color="#BFC7FF"></stop><stop offset="1" stop-color="#8C95CF"></stop></linearGradient></defs>
    <path d="M764.05 841.24c31.337 0 56.74-25.404 56.74-56.74 0-31.337-25.403-56.74-56.74-56.74-31.337 0-56.74 25.403-56.74 56.74 0 31.336 25.403 56.74 56.74 56.74zM1048.19 841.24c31.34 0 56.74-25.404 56.74-56.74 0-31.337-25.4-56.74-56.74-56.74-31.34 0-56.74 25.403-56.74 56.74 0 31.336 25.4 56.74 56.74 56.74z" fill="#fff" stroke="#000" stroke-width="20" stroke-miterlimit="10"></path><path d="M787.05 797.5c7.18 0 13-5.82 13-13s-5.82-13-13-13-13 5.82-13 13 5.82 13 13 13zM1071.19 797.5c7.18 0 13-5.82 13-13s-5.82-13-13-13-13 5.82-13 13 5.82 13 13 13z" fill="#000"></path><path d="M1000.1 1063.55H831.28a5.5 5.5 0 01-5.5-5.5 89.319 89.319 0 0189.32-89.32h1.18a89.32 89.32 0 0189.32 89.32c0 1.46-.58 2.86-1.61 3.89a5.503 5.503 0 01-3.89 1.61z" fill="#fff" stroke="#000" stroke-width="20" stroke-miterlimit="10"></path><path d="M674.561 726.83a24.257 24.257 0 01-24.255 23.767 24.26 24.26 0 01-24.255-23.767c0-13.48 24.26-43.83 24.26-43.83s24.25 30.5 24.25 43.83z" fill="#BBEBFF"></path>
    <path d="M695 882.42v6.14a7.746 7.746 0 01-.67 3.22c-1.26 2.86-3.34 3-3.34 3a7.817 7.817 0 01-6.39-1.32c-2.64-2.11-9.24-20.21-9.24-20.21l-12.71 20.21H654l17.8-28.21-5.59-11.59a4.654 4.654 0 00-4.07-2.64H662a4.713 4.713 0 00-4.13 1.7c-.89.89-1.21 3.78-1.21 3.78l-1.78.13a22.972 22.972 0 01-.13-5.28 7.776 7.776 0 011.34-3.76 5.694 5.694 0 014.83-2.61 7.816 7.816 0 014.51 1.43 8.67 8.67 0 013 3.74l5.26 13.05 11.44-17.4H693l-15.8 24.51 3.94 9.32s3 9 7.31 9 4.71-6.22 4.71-6.22l1.84.01z" fill="#000"></path>
    <path d="M1294.36 589.74c21.14 26.76 22.63 46.39 25.92 73.14 3.56 28.84-.01 57.69-25.92 85.99-21.28 23.26-51.52 36.3-91.11 55.87.99-14.52-1-35.25-3.88-50.75 26.43-18.93 47.28-17.44 42.91-53.12-4.19-33.96-36.25-46.42-98.91-61.87l-201.05-19.15-232 20.5-294.5 59.5-64.5 33 .46-7c-53.43 29.1-70.64 50.43-66.57 83.65 3.43 27.8 19.18 22.03 63.18 39.38 3.67 25.62 9.9 53.19 13.81 62-109.44-27.14-143.21-51.93-149.88-106-3.3-26.75 1.42-71.2 26.5-100 25.63-29.36 43.06-40.24 93.63-66.91a733.43 733.43 0 0125.83-13L399.501 593l61-107.5 117.5-209.5-233.5 85c-20.167 3.667-55.9.9-37.5-39.5s160.333-133.5 229-175l98.5-92c22-15.833 72.8-36.3 100 8.5 27.2 44.8 84 153.667 109 202.5 7.333-4.167 27.5-2.7 49.5 36.5s77.166 91.333 102 112.5l91.999 86-12.72 7.34 7.91 12.55a826.4 826.4 0 0120.61 3.13c.94.274 1.91.436 2.89.48 19.74 3.333 38.7 7.22 56.88 11.66 55.53 13.61 99.87 31.81 131.79 54.08z" fill="url(#prefix__paint0_linear_316_1571)"></path><path d="M572.28 524.39L544 506.7l-28.28 17.69a2.995 2.995 0 01-3.321-.134 2.997 2.997 0 01-1.159-3.116l8.09-32.36-25.26-21.42a3.004 3.004 0 01-.914-3.213 3.002 3.002 0 012.624-2.067l33-2.3 12.47-30.94a3.126 3.126 0 012.77-1.684 3.118 3.118 0 012.77 1.684l12.47 30.94 33 2.3a3.005 3.005 0 012.625 2.067 3.002 3.002 0 01-.915 3.213l-25.26 21.42 8.09 32.36a2.999 2.999 0 01-4.52 3.25z" fill="url(#prefix__paint1_linear_316_1571)"></path><path d="M734 411.709l-15.64-29.46-33.36 1.19a3 3 0 01-2.26-5.06l23.19-24-11.17-31.18a3.001 3.001 0 014.12-3.71l29.7 14.51 26.27-20.56c1.92-1.5 5.13.36 4.8 2.78l-4.67 33 27.41 18.48a3.004 3.004 0 011.242 3.104 2.993 2.993 0 01-2.402 2.326l-32.59 5.92-9.17 32.07a3.002 3.002 0 01-4.273 1.792 2.997 2.997 0 01-1.237-1.222l.04.02z" fill="url(#prefix__paint2_linear_316_1571)"></path><path d="M890.1 490.36l9.9-31.85-24.33-22.82a2.996 2.996 0 012-5.17l33.35-.44 14.26-29.9a2.996 2.996 0 012.873-1.701 3.007 3.007 0 012.667 2.011l10.64 31.29 33.1 4.16a3.121 3.121 0 011.44 5.36l-26.73 20 6.2 32.47a3.007 3.007 0 01-1.329 3.056 2.997 2.997 0 01-3.331-.056l-27.17-19-29.22 16.08a3.002 3.002 0 01-4.29-3.5l-.03.01z" fill="url(#prefix__paint3_linear_316_1571)"></path><path d="M733 211.709l-15.64-29.46-33.36 1.19a3 3 0 01-2.26-5.06l23.19-24-11.17-31.18a3.001 3.001 0 014.12-3.71l29.7 14.51 26.27-20.56c1.92-1.5 5.13.36 4.8 2.78l-4.67 33 27.41 18.48a3.004 3.004 0 011.242 3.104 2.993 2.993 0 01-2.402 2.326l-32.59 5.92-9.17 32.07a3.002 3.002 0 01-4.273 1.792 2.997 2.997 0 01-1.237-1.222l.04.02z" fill="url(#prefix__paint4_linear_316_1571)"></path><path d="M427 333.709l-15.64-29.46-33.36 1.19a3 3 0 01-2.26-5.06l23.19-24-11.17-31.18a3.001 3.001 0 014.12-3.71l29.7 14.51 26.27-20.56c1.92-1.5 5.13.36 4.8 2.78l-4.67 33 27.41 18.48a3.004 3.004 0 011.242 3.104 2.993 2.993 0 01-2.402 2.326l-32.59 5.92-9.17 32.07a3.002 3.002 0 01-4.273 1.792 2.997 2.997 0 01-1.237-1.222l.04.02z" fill="url(#prefix__paint5_linear_316_1571)"></path><path d="M348.42 846.281c-25.82-10.39-61.32-31-63.07-43.16-.89-6.19 1.63-13.14 7.48-20.65 5.68-7.28 38.42-30.19 60.64-43.17 0 0-11.96 53.49-5.05 106.98zM1198.06 746.15c-4.93-27.29-14.85-57.46-26-82.85 34.65 12.3 55.07 12.7 56.76 24.46 16.91 38.14-11.23 44.1-30.76 58.39z" fill="#393CBC"></path><path d="M357.36 851c-41.74-13-65-25.49-68.05-46.62-9.31-65.15 196-140.45 458.69-168.13 262.69-27.68 483.27 2.62 492.64 67.76 3 21-13.55 30.71-49.42 47.09M1109 516.59S941.66 400.3 886.27 279.23a26.996 26.996 0 00-42-9.46c-25.9 21.87-69.49 47.74-128.86 44.9" stroke="#000" stroke-width="20" stroke-miterlimit="10" stroke-linecap="round"></path><path d="M844.27 269.77L731.57 66.18a55.588 55.588 0 00-85.12-15L311.51 316.06c-22.8 19.83-2.67 56.79 26.36 48.38l240.24-90.12M387.05 604s188-291.12 208.11-366.93" stroke="#000" stroke-width="20" stroke-miterlimit="10" stroke-linecap="round"></path><path d="M370.5 912.5C276 893 221.2 849.67 213.62 788.11c-14.27-115.64 221.25-239.75 526-277.3 304.75-37.55 563.41 25.85 577.67 141.48 7.6 61.7-12.64 102.12-119.81 154.21" stroke="#000" stroke-width="20" stroke-miterlimit="10"></path><defs><linearGradient id="prefix__paint0_linear_316_1571" x1="554.001" y1="95" x2="938.001" y2="911" gradientUnits="userSpaceOnUse"><stop stop-color="#58EBFF"></stop><stop offset="1" stop-color="#5052F1"></stop></linearGradient><linearGradient id="prefix__paint1_linear_316_1571" x1="544.02" y1="427.156" x2="544.02" y2="524.859" gradientUnits="userSpaceOnUse"><stop stop-color="#fff"></stop><stop offset="1" stop-color="#E0E3E3"></stop></linearGradient><linearGradient id="prefix__paint2_linear_316_1571" x1="732.809" y1="312.9" x2="732.809" y2="413.258" gradientUnits="userSpaceOnUse"><stop stop-color="#fff"></stop><stop offset="1" stop-color="#E0E3E3"></stop></linearGradient><linearGradient id="prefix__paint3_linear_316_1571" x1="925.881" y1="398.475" x2="925.881" y2="497.303" gradientUnits="userSpaceOnUse"><stop stop-color="#fff"></stop><stop offset="1" stop-color="#E0E3E3"></stop></linearGradient><linearGradient id="prefix__paint4_linear_316_1571" x1="731.809" y1="112.9" x2="731.809" y2="213.258" gradientUnits="userSpaceOnUse"><stop stop-color="#fff"></stop><stop offset="1" stop-color="#E0E3E3"></stop></linearGradient><linearGradient id="prefix__paint5_linear_316_1571" x1="425.809" y1="234.9" x2="425.809" y2="335.258" gradientUnits="userSpaceOnUse"><stop stop-color="#fff"></stop><stop offset="1" stop-color="#E0E3E3"></stop></linearGradient></defs>
  </svg>