<svg class="•57" xmlns="http://www.w3.org/2000/svg" preserveAspectRatio="xMidYMin meet" fill="none" viewBox="0 0 1500 1500">
    <path fill="url(#prefix__a3)" d="M0 0h1500v1500H0z"></path><defs><linearGradient id="prefix__a3" x1="0" y1="0" x2="1500" y2="1500" gradientUnits="userSpaceOnUse"><stop stop-color="#A0C8E0"></stop><stop offset="1" stop-color="#6A8494"></stop></linearGradient></defs>
    <g clip-path="url(#prefix__clip0_316_2818)"><path d="M360 1179.44l-69.5 320.48H1276l-120.5-336.98-26-23.5-109.5-26.5H558l-84 18-86 21-28 27.5z" fill="url(#prefix__paint0_linear_316_2818)"></path><path d="M740.41 1499.98l-15.32-158.63-5.88-102.43 7.78-56.45 161.2-9.84 26.66 114.71 7 165.68-2.26 46.96H740.41z" fill="#fff"></path><path d="M1286.24 1499.98h-21.3l-115.52-315.04a69.02 69.02 0 00-52.3-44.3l-322-58.87-356 70.31a68.713 68.713 0 00-34.722 18.27 68.715 68.715 0 00-19.068 34.29l-64.54 295.38h-20.52l65.47-299.68a88.803 88.803 0 0124.623-44.29 88.783 88.783 0 0144.837-23.6l359.77-71 325.74 59.49a88.994 88.994 0 0167.5 57.13l118.03 321.91z" fill="#000"></path><path d="M511.71 1369.24a922.097 922.097 0 00-19 130.68h-20v-.69a924.662 924.662 0 0119.51-134.59 9.975 9.975 0 014.513-6.07 9.99 9.99 0 017.473-1.18c2.549.61 4.759 2.18 6.157 4.4a10.002 10.002 0 011.317 7.45h.03zM1132 1499.92h-20.2c-2.81-13.91-20.24-98.7-36.65-147.5a10.046 10.046 0 01.4-7.75 9.97 9.97 0 012.39-3.15c1-.88 2.16-1.55 3.42-1.98a10.087 10.087 0 017.74.57c1.18.61 2.24 1.44 3.1 2.46.86 1.02 1.5 2.2 1.9 3.47 18.25 54.24 36.92 147.99 37.71 151.93.13.64.19 1.3.19 1.95z" fill="#000"></path><path d="M769.13 1499.92l18.12-231.45-27.78-13.87 53.15-64.43 53.96 68.22-23.79 12.81 21.3 105.71 23.04 123.07-118-.06z" fill="url(#prefix__paint1_linear_316_2818)"></path><path d="M724.06 1281.21h-6.76v-20h15.35a5.038 5.038 0 002.49-.85 5.058 5.058 0 001.71-2.01l.42-.79 56.4-71.55a17.613 17.613 0 015.964-4.86 17.474 17.474 0 017.466-1.86c2.595-.07 5.172.44 7.547 1.49a17.667 17.667 0 016.193 4.57l58.48 67.19.47.79a5.394 5.394 0 002.474 2.21c1.036.45 2.189.57 3.296.33 4.74-1 12.37-2.84 21.82-5.63l5.68 19.17c-8 2.36-16 4.43-23.26 6a25.326 25.326 0 01-15.068-1.33 25.336 25.336 0 01-11.632-9.67l-55.48-63.75-53.6 67.99a24.79 24.79 0 01-8.987 9.15 24.758 24.758 0 01-12.353 3.44l-8.62-.03z" fill="#000"></path><path d="M808.88 1283.14c-16.618.01-33.06-3.39-48.31-10l-9.93-4.31 8-18.34 9.93 4.3a101.641 101.641 0 0040.35 8.35c13.879 0 27.611-2.84 40.35-8.35l9.93-4.3 8 18.34-9.93 4.31a121.31 121.31 0 01-48.39 10z" fill="#000"></path><path d="M784.18 1500l-20-.16 8.27-226.74 20 .16-8.27 226.74zM882.82 1499.92L835 1275.79l19.3-5.23 49.24 229.36h-20.72zM659.15 1338.93a17.306 17.306 0 01-3.179 8.79 17.3 17.3 0 01-7.281 5.87l-43.43 18.72a10.156 10.156 0 00-5.231 5.1 10.174 10.174 0 00-.469 7.29l35.82 115.28h-20.94l-34-109.35a30.138 30.138 0 0116.9-36.7l38.87-16.76-60.54-37.75a32.868 32.868 0 01-9.85-9.52 32.804 32.804 0 011.53-38.69l74.09-93.22 7.82 6.22 7.83 6.23-74.09 93.24a12.751 12.751 0 00-2.369 4.79 12.76 12.76 0 00-.208 5.33 12.779 12.779 0 005.827 8.67l64.75 40.38a17.347 17.347 0 016.326 6.9 17.347 17.347 0 011.824 9.18zM746.75 1499.98h-20.3c-3.74-22.87-8-52-11.58-84.27-11.14-100.91-10.32-182.42 2.47-242.29 0-.26.1-.51.16-.77l9.77 2.11 9.78 2.11c-5.54 25.68-8.42 54.46-9.43 84.34-.233 6.62-.37 13.29-.41 20-.59 81.53 11.11 167.65 19.54 218.77zM934.26 1406.6c1.28 36.42 1.09 69.17.56 93.38h-20a.067.067 0 01-.008-.03c0-.01.003-.02.008-.03.22-10.44.38-22.51.38-35.84 0-52.53-2.47-124.45-13-191.61-1-6.65-2.17-13.26-3.38-19.79-5.25-28.36-12.1-55.39-21-79.19l9.36-3.5 9.35-3.49.27.74c21.28 57.35 33.89 137.89 37.46 239.36zM1063.62 1362.34L1042 1499.98h-20.25l22.15-140.75c.39-2.49-.15-5.03-1.52-7.14a10.15 10.15 0 00-5.91-4.29l-45.68-12.24a17.407 17.407 0 01-8.053-4.76 17.376 17.376 0 01-3.934-17.58 17.403 17.403 0 015.257-7.74l58.23-49.32c1.37-1.16 2.49-2.6 3.26-4.23.78-1.62 1.21-3.39 1.25-5.19.05-1.8-.29-3.59-.98-5.25-.69-1.67-1.73-3.16-3.04-4.4L956 1155.56l6.85-7.29 6.85-7.28 86.78 81.53a32.844 32.844 0 0110.32 24.74 32.772 32.772 0 01-11.58 24.16l-54.44 46.11 40.88 11a30.175 30.175 0 0117.47 12.69 30.161 30.161 0 014.49 21.12z" fill="#000"></path></g><defs><linearGradient id="prefix__paint0_linear_316_2818" x1="438" y1="1112.94" x2="1251.98" y2="1499.95" gradientUnits="userSpaceOnUse"><stop stop-color="#575656"></stop><stop offset="1" stop-color="#2F2E2E"></stop></linearGradient><linearGradient id="prefix__paint1_linear_316_2818" x1="823.3" y1="1190.17" x2="823.3" y2="1499.98" gradientUnits="userSpaceOnUse"><stop stop-color="#4E4C4C"></stop><stop offset="1" stop-color="#2F2E2E"></stop></linearGradient><clipPath id="prefix__clip0_316_2818"><path fill="#fff" d="M0 0h1500v1500H0z"></path></clipPath></defs>
    <path d="M775 1185c231.41 0 419-168.12 419-375.5 0-207.383-187.59-375.5-419-375.5-231.407 0-419 168.117-419 375.5 0 207.38 187.593 375.5 419 375.5z" fill="url(#prefix__body)"></path><path d="M775 1185c231.41 0 419-168.12 419-375.5 0-207.383-187.59-375.5-419-375.5-231.407 0-419 168.117-419 375.5 0 207.38 187.593 375.5 419 375.5z" stroke="#000" stroke-width="20"></path><defs><linearGradient id="prefix__body" x1="417" y1="495.5" x2="1096" y2="1147" gradientUnits="userSpaceOnUse"><stop stop-color="#BFC7FF"></stop><stop offset="1" stop-color="#8C95CF"></stop></linearGradient></defs>
    <path d="M844.63 1012.87h141.62M829.06 777.09l-31.89-.02-34.13-.03-43.3-.04" stroke="#000" stroke-width="20" stroke-linecap="round"></path><path d="M805.53 785.89A29.91 29.91 0 11763 777h34.13a29.774 29.774 0 018.4 8.89z" fill="#000" stroke="#000" stroke-width="20" stroke-linecap="round"></path><path d="M1081.06 777l-43.31.04-34.13.03-31.88.02" stroke="#000" stroke-width="20" stroke-linecap="round"></path><path d="M995.26 785.89a29.915 29.915 0 00-4.456 16.588 29.915 29.915 0 0018.886 26.946 29.908 29.908 0 0032.21-6.709 29.836 29.836 0 008.11-15.14 29.862 29.862 0 00-1.55-17.105 29.882 29.882 0 00-10.71-13.43h-34.13a29.957 29.957 0 00-8.36 8.85z" fill="#000" stroke="#000" stroke-width="20" stroke-linecap="round"></path>
    <path opacity=".5" d="M650.33 766.53s-2.59-63.6 77.41-64.6c80-1 105.45 2.24 105.45 2.24l29.55 17.76 13 59.31s1 26 0 31.36c-1 5.36-25.33 41.83-25.33 41.83s-41.37 47.5-90.52 42S666.499 849 666.499 849s-19.759-49.32-20.269-49.69c-.51-.37 4.1-32.78 4.1-32.78zM971.33 725.75s24.62-35.82 106.52-28.32c81.9 7.5 88.3 28.32 88.3 28.32s3.59-3.82 6.59 23.18 6 40 6 40-3 17-4 21-2.41 19-5.21 24-9 15.59-11.4 18.29c-2.4 2.7-11.94 13.84-20.67 20.77-8.73 6.93-28.37 15.28-30 16.61-1.63 1.33-10 8.21-17.32 7.26-7.32-.95-16.4 1.13-32.4.07-16-1.06-58.738-22.431-60.738-26.431s-15-2-20-18-9.902-20.409-11.582-23.989c-1.68-3.58-8.68-9.82-8.68-26.2s5-29.38 6-35.38c1-6 8.59-41.18 8.59-41.18z" fill="#00FF0A"></path><path d="M681.5 720.5S687 709.23 739 703l97 169.89s-18 18.68-56.07 18.1L681.5 720.5zM756.58 700.12s-4.78 3.73 13-7.12L856 850.55s5.57 6.48-9 9.45l-90.42-159.88zM991.001 719.382s-1-21.754 50.999-28.382l97 180.731s-18 19.872-56.07 19.255l-91.929-171.604zM1059.58 700.12s-4.78 3.73 13.05-7.12L1159 850.55s5.57 6.48-9 9.45l-90.42-159.88z" fill="#fff" fill-opacity=".3"></path><path d="M722.89 697.43h79.71a72.647 72.647 0 0151.371 21.279 72.647 72.647 0 0121.279 51.371v13.85a112.497 112.497 0 01-32.951 79.549 112.497 112.497 0 01-159.098 0 112.497 112.497 0 01-32.951-79.549v-13.86a72.65 72.65 0 0172.64-72.64v0zM1028.89 697.43h79.71c19.27 0 37.75 7.654 51.37 21.279a72.627 72.627 0 0121.28 51.371v13.85a112.5 112.5 0 11-225 0v-13.86a72.65 72.65 0 0172.64-72.64v0zM874.6 792.43a68.92 68.92 0 0181.64 0M866 736h98M650.24 755.43l-266.5-60.5" stroke="#000" stroke-width="20" stroke-miterlimit="10"></path>
    <path d="M452.064 482.151c-104.889 112.873-101.3 246.773-101.3 246.773-.418 14.067 14.974 20.397 14.974 20.397l128.995-56.526 35.639-18.862 22.432 26.917c19.108 7.81 57.922 23.728 60.315 24.924 2.392 1.196 62.807 13.791 92.715 19.939 40.543-1.828 141.267-12.861 219.826-42.37 78.56-29.51 139.07-28.579 159.51-24.425 20.77 5.815 72.58 18.044 113.65 20.437 41.08 2.393 26.42-33.896 13.96-52.339l-23.93-13.958-46.35-19.421-43.06-91.459s-14.26-48.053-134.689-124.169c-120.43-76.117-240.911-57.175-240.911-57.175s-166.888 28.443-271.776 141.317z" fill="url(#prefix__prefix__paint0_linear_316_389)"></path><path d="M539.057 669.816c-90.931 33.368-140.28 60.355-165.592 77.034a14.877 14.877 0 01-21.267-5.398 14.877 14.877 0 01-1.743-7.931c4.167-68.221 30.198-205.29 154.526-300.249 153.121-116.981 298.086-91.968 311.046-89.416.758.15 1.506.289 2.273.419 20.009 3.579 261.46 51.203 326.18 276.153" stroke="#000" stroke-width="20" stroke-miterlimit="10"></path><path d="M538.667 671.044c.23-.788.634-1.409 1.312-1.871 13.787-9.381 183.305-117.499 585.401-53.422 0 0 48.7 9.6 90.07 32.062a30.695 30.695 0 0114.53 17.606 30.714 30.714 0 01-1.62 22.769 30.738 30.738 0 01-16.88 15.365 30.744 30.744 0 01-22.83-.52c-33.33-14.266-83.32-29.41-137.41-32.5-42.02-2.403-134.701 36.887-203.629 55.998a416.341 416.341 0 01-171.096 10.767c-69.469-10.096-148.504-29.738-137.848-66.254z" stroke="#000" stroke-width="20" stroke-miterlimit="10"></path><path d="M937.584 503.928v10.576c-.088.182-.022.376-.043.563v.643c-.024 1.333-.317 2.626-.598 3.919a47.295 47.295 0 01-2.802 8.72 47.193 47.193 0 01-5.002 8.851 44.555 44.555 0 01-5.507 6.34 46.563 46.563 0 01-9.794 7.166 46.685 46.685 0 01-7.705 3.344 46.993 46.993 0 01-7.347 1.77 46.91 46.91 0 01-4.024.476c-.927-.021-1.852.071-2.778.043h-1.751c-.952.026-1.902-.064-2.854-.044a48.766 48.766 0 01-7.222-1.071 53.292 53.292 0 01-5.25-1.46 53.021 53.021 0 01-7.504-3.177 51.633 51.633 0 01-6.03-3.663 58.075 58.075 0 01-4.867-3.856c-1.06-.93-2.046-1.936-3.039-2.937-.381-.383-.404-.38-.728.052-1.421 1.901-2.985 3.678-4.729 5.288a40.363 40.363 0 01-7.481 5.487 42.114 42.114 0 01-8.764 3.745c-2.248.671-4.543 1.102-6.861 1.424-.599.083-1.206.115-1.809.17-2.2.057-4.4.057-6.601 0-2.466-.158-4.896-.575-7.292-1.158a44.756 44.756 0 01-7.631-2.602 47.11 47.11 0 01-10.109-6.096c-1.669-1.321-3.269-2.727-4.728-4.278-2.981-3.163-5.545-6.631-7.585-10.481a43.595 43.595 0 01-4.274-12.068c-.159-.815-.305-1.634-.381-2.464v-11.045c.051-1.301.335-2.571.627-3.833.49-2.116 1.12-4.194 1.942-6.21 1.121-2.749 2.48-5.369 4.145-7.833a44.63 44.63 0 015.077-6.208 42.689 42.689 0 018.207-6.549c3.832-2.363 7.95-4.06 12.315-5.16l.246-.062c.58-.149.568-.147.451-.744-.426-2.157-.782-4.321-.908-6.524a58.214 58.214 0 01-.047-5.494c.149-4.101.952-8.076 2.515-11.89.534-1.303.966-2.647 1.621-3.901a39.931 39.931 0 015.785-8.303c2.724-3.02 5.851-5.536 9.344-7.6a40.695 40.695 0 0110.264-4.301c1.731-.461 3.479-.846 5.255-1.092 1.008-.064 2.005-.23 3.015-.275a96.37 96.37 0 014.465-.081c2.327.02 4.633.271 6.93.64a49.96 49.96 0 017.916 1.936c3.378 1.13 6.598 2.612 9.609 4.533 2.23 1.424 4.323 3.015 6.138 4.948 1.447 1.542 2.777 3.184 4.034 4.887a52.038 52.038 0 014.856 7.967c1.947 3.963 3.437 8.092 4.264 12.441.085.447.28.625.716.726a81.058 81.058 0 0112.698 4.098c3.1 1.29 6.12 2.743 8.898 4.656a48.89 48.89 0 015.509 4.4c1.397 1.295 2.721 2.658 4.019 4.047 2.742 2.933 5.18 6.098 7.176 9.591a48.574 48.574 0 014.401 10.229c.639 2.137 1.162 4.299 1.485 6.505.05.362.077.727.08 1.093v.596c.021.197-.049.4.042.59z" fill="#000"></path><path d="M774.49 506.287c.017-.114-.003-.237.084-.334.005.112.02.224.012.335-.042.576-.032 1.152-.032 1.729v7.763c0 .309.007.618.011.927a.035.035 0 01-.015.017.04.04 0 01-.023.008.046.046 0 01-.023-.005.055.055 0 01-.018-.016c-.083-.134.026-.301-.075-.432v-9.56c.104-.13-.009-.3.079-.432zm66.752-85.769c.031-.025.063-.07.097-.073.571-.058 1.139-.167 1.714-.202.476-.029.949-.105 1.424-.137.421-.029.844-.025 1.266-.039.108-.004.228.035.317-.067h2.876c0 .03 0 .06-.002.09-.137.052-.279.028-.418.028-.633.003-1.266-.004-1.899.003-1.026.011-2.05.076-3.071.172-.63.058-1.257.141-1.886.208-.139.014-.278.053-.418.017zM823.22 556.204c-.051.081-.131.091-.215.092l-.575.013c-.083.002-.165.004-.225.076h-4.736c-.062-.068-.143-.073-.226-.075l-.658-.014c-.084 0-.164-.011-.216-.09.463-.033.924.032 1.385.044.337.009.672.042 1.009.042.898 0 1.796-.002 2.694-.019.49-.009.98-.052 1.47-.076.097-.005.195.004.293.007zm65.135.179c-.06-.07-.143-.074-.225-.075-.22-.005-.439-.01-.658-.013-.084 0-.164-.011-.212-.096.337.008.674.012 1.011.025.648.024 1.295.054 1.942.082.029.016.04.032.031.049-.008.017-.017.026-.027.027l-1.862.001zm6.512-.175c-.052.079-.132.088-.216.089l-.574.013c-.083.002-.165.005-.225.075h-1.861c-.028-.018-.037-.035-.026-.051.01-.017.019-.025.029-.025l2.75-.12a.655.655 0 01.123.019z" fill="#000"></path><path d="M891.995 556.308a.488.488 0 00-.003.076h-1.777a.483.483 0 00-.003-.076 23.046 23.046 0 011.783 0zm45.589-52.381a.223.223 0 01-.081-.185c0-.14.005-.28.008-.42a.046.046 0 01.018-.013.058.058 0 01.023-.002.054.054 0 01.02.01c.005.005.01.011.012.018v.592zm-.079 11.174c0-.138-.003-.277-.003-.416a.22.22 0 01.019-.101.227.227 0 01.064-.08v.592c-.024.036-.051.04-.08.005zm-163.015-8.814c.004.15.043.306-.078.433v-.423a.257.257 0 01.078-.01zm-.078 9.992c.121.127.08.283.075.432h-.038l-.037-.01v-.422z" fill="#000"></path><path d="M937.584 503.335c-.024-.005-.048-.01-.073-.013v-.331c.028-.032.052-.029.075.006l-.002.338zm-.074 12.187l.005-.25c.019-.044.042-.048.07-.008v.254c-.023.038-.048.037-.075.004z" fill="#000"></path><path d="M937.584 502.999a.452.452 0 01-.074-.006v-.251l.075.002-.001.255zm0 12.265a.266.266 0 01-.069.008l-.011-.171a.215.215 0 01.08-.006v.169zm-.074.259a.47.47 0 01.075-.003v.169a.873.873 0 01-.073.003l-.002-.169z" fill="#000"></path><path d="M895.292 468.389c.258 0 .495.101.738.164a41.537 41.537 0 019.19 3.585 42.645 42.645 0 016.305 4.091 43.853 43.853 0 017.491 7.48 43.116 43.116 0 013.486 5.19 42.553 42.553 0 012.739 5.758 41.757 41.757 0 012.009 6.931c.191.952.339 1.912.455 2.878.138 1.162.217 2.326.273 3.495.039.818.05 1.635.024 2.45-.023.703-.026 1.408-.115 2.109-.045.362-.059.729-.095 1.094-.172 1.742-.493 3.455-.909 5.155a36.71 36.71 0 01-1.503 4.704 35.935 35.935 0 01-2.719 5.486 36.78 36.78 0 01-4.53 5.991 36.366 36.366 0 01-7.461 6.126 36.638 36.638 0 01-7.073 3.397c-1.566.555-3.161 1.023-4.796 1.34-.829.161-1.659.317-2.494.448-.64.099-1.285.161-1.931.22-.7.063-1.403.125-2.106.149-.802.028-1.607.028-2.409.014-.69-.012-1.38-.044-2.068-.097a36.83 36.83 0 01-3.314-.391c-1.375-.234-2.742-.499-4.09-.861a42.736 42.736 0 01-8.124-3.086 43.44 43.44 0 01-7.205-4.557 44.817 44.817 0 01-2.827-2.417 45.783 45.783 0 01-2.556-2.583c-.209-.227-.398-.473-.596-.71-.316-.295-.277-.608-.127-.989 1.305-3.308 2.145-6.733 2.573-10.264.277-2.285.412-4.579.304-6.874-.143-2.986-.508-5.948-1.235-8.859a50.605 50.605 0 00-1.474-4.896 45.367 45.367 0 00-3.497-7.5c-.227-.39-.439-.788-.69-1.163-.239-.357-.266-.352-.504.001-.102.15-.179.402-.441.183a1.468 1.468 0 01-.132-.161 33.41 33.41 0 00-1.726-2.538c-.139-.184-.158-.338-.049-.535.17-.304.324-.616.485-.926.564.91 1.242 1.742 1.813 2.646.199.314.264.304.445-.031 1.469-2.694 3.179-5.225 5.204-7.531a41.95 41.95 0 016.979-6.364 41.518 41.518 0 0112.623-6.168 42.396 42.396 0 017.281-1.46c2.46-.276 4.921-.209 7.383-.234.341-.002.654.176.996.11z" fill="#5F73C7"></path><path d="M823.484 480.145c.329 0 .634.121.944.206a35.292 35.292 0 016.083 2.286 36.9 36.9 0 017.222 4.602 36.995 36.995 0 013.153 2.874 37.71 37.71 0 013.529 4.208 36.445 36.445 0 014.207 7.602 35.703 35.703 0 011.6 4.984c.269 1.109.481 2.231.635 3.361.098.711.158 1.428.222 2.144.069.787.078 1.576.101 2.363.022.773-.032 1.549-.071 2.323-.023.463-.083.925-.127 1.388a30.346 30.346 0 01-.769 4.407c-.744 3-1.929 5.873-3.516 8.526a30.72 30.72 0 01-3.869 5.169 31.009 31.009 0 01-5.444 4.667 31.373 31.373 0 01-7.481 3.693 32.79 32.79 0 01-5.788 1.372 32.91 32.91 0 01-2.605.262c-1.083.073-2.168.09-3.252.051-.661-.024-1.321-.087-1.981-.132-1.041-.072-2.07-.238-3.096-.426a35.023 35.023 0 01-7.114-2.111 36.407 36.407 0 01-9.398-5.7 36.406 36.406 0 01-2.679-2.456 37.533 37.533 0 01-4.114-4.982 36.846 36.846 0 01-2.644-4.471 35.706 35.706 0 01-2.05-5.045 1.302 1.302 0 01-.031-.205c-.1-.878-.182-1.755-.23-2.637a34.689 34.689 0 01.003-3.883c.075-1.28.182-2.556.378-3.823.482-3.106 1.323-6.109 2.579-8.996a35.768 35.768 0 014.334-7.431c1.306-1.718 2.741-3.322 4.359-4.762 1.127-1.004 2.285-1.965 3.519-2.834a35.52 35.52 0 015.094-2.992 35.753 35.753 0 016.328-2.356 38.63 38.63 0 016.23-1.116c1.914-.185 3.825-.145 5.739-.13zm32.475-50.515c.125.021.251.032.373.064 1.706.444 3.381.985 5.008 1.667a36.754 36.754 0 018.004 4.604 36.924 36.924 0 014.653 4.174 36.892 36.892 0 013.861 4.862 36.228 36.228 0 013.554 6.809 35.684 35.684 0 011.651 5.456c.08.369.055.391-.293.412-.491.03-.983.078-1.474.115-.998.075-1.988.206-2.979.343-1.776.245-3.523.628-5.252 1.083a45.675 45.675 0 00-5.449 1.815 45.831 45.831 0 00-8.113 4.247 45.254 45.254 0 00-5.667 4.411 45.816 45.816 0 00-4.396 4.622 44.381 44.381 0 00-3.05 4.157c-.444.686-.857 1.393-1.283 2.09-.044.072-.083.147-.127.219-.059.095-.114.105-.204.032-.24-.197-.476-.398-.712-.599a40.23 40.23 0 00-2.398-1.876 46.191 46.191 0 00-16.055-7.521 44.456 44.456 0 00-4.477-.873c-.934-.131-1.872-.247-2.815-.294-.21-.011-.421-.034-.631-.052-.104-.01-.19-.043-.222-.159-.161-.626-.367-1.241-.431-1.889.229-.002.205.199.243.329.127.43.22.87.379 1.301-.058-.5-.007-1.002-.06-1.492-.162-1.523-.009-3.036.082-4.554.096-1.604.31-3.198.64-4.771a35.72 35.72 0 012.539-7.739 36.07 36.07 0 015.884-8.982 35.554 35.554 0 019.304-7.433 36.052 36.052 0 018.957-3.49 37.152 37.152 0 015.455-.905c1.499-.139 3.004-.245 4.513-.195.311.011.617.064.921.121.155.028.014-.093.067-.109z" fill="#5F73C8"></path><path d="M855.96 429.63c.007.097.151.066.158.183-.279-.016-.556.036-.831-.064-.101-.037-.222-.02-.335-.02-.55-.002-1.1-.002-1.65 0a1.82 1.82 0 00-.543.057c-.13.04-.279.02-.419.026-.364.016-.733-.047-1.09.076-.051.018-.112.01-.168.008-.536-.014-1.06.076-1.587.152-.289.042-.584.073-.876.094-.45.031-.886.133-1.327.206-.538.09-1.071.206-1.607.31-.055.011-.116.005-.165.027-.467.204-.979.236-1.46.391-.293.095-.594.167-.888.254-.945.273-1.861.632-2.789.957-.45.158-.88.37-1.318.562-.463.203-.935.39-1.383.624-.299.155-.591.328-.896.469-.565.26-1.087.593-1.619.906-.69.407-1.366.836-2.021 1.298-.355.251-.707.506-1.061.758-.675.479-1.284 1.042-1.953 1.53a.427.427 0 00-.063.057c-.574.58-1.219 1.086-1.775 1.686-.278.299-.585.571-.863.871-.393.42-.782.843-1.143 1.294-.209.263-.451.5-.661.763-.332.417-.652.844-.972 1.27-.22.291-.457.573-.644.884-.196.326-.409.639-.617.956-.269.413-.504.846-.768 1.259-.397.62-.699 1.285-1.039 1.933-.091.174-.209.334-.295.511-.135.278-.258.562-.38.846-.245.568-.497 1.132-.726 1.706-.165.417-.296.847-.446 1.27-.088.252-.187.5-.273.752-.391 1.142-.676 2.316-.964 3.488a14.322 14.322 0 00-.339 1.815c-.056.501-.211.989-.194 1.499-.149.374-.025.783-.153 1.165-.047.14-.01.308-.012.463-.003.182.008.364-.059.542-.031.089-.021.195-.025.293-.016.42.047.845-.079 1.259-.016.052-.005.112-.005.168v1.777c0 .056-.011.117.005.169.125.385.064.782.078 1.174.007.196-.003.389.062.584.053.158.035.335.005.503a.138.138 0 01-.035.048.118.118 0 01-.053.028c-.033.007-.097-.013-.107-.038a2.386 2.386 0 01-.122-.357 96.892 96.892 0 01-.344-1.388.228.228 0 00-.032-.077.232.232 0 00-.059-.058c-.146-.354-.176-.736-.252-1.107a28.186 28.186 0 01-.495-3.81 31.73 31.73 0 01-.089-2.617c.016-1.24.097-2.477.242-3.708a31.919 31.919 0 011.055-5.168 31.639 31.639 0 012.41-5.941 31.21 31.21 0 013.486-5.232 30.382 30.382 0 016.273-5.75 31.39 31.39 0 019.543-4.407 33.081 33.081 0 015.688-1.015 30.752 30.752 0 013.629-.139c1.154.029 2.307.098 3.454.244a37.39 37.39 0 013.454.587c.179.039.352.095.527.144zm-32.476 50.515a.217.217 0 01-.081.066.22.22 0 01-.101.024c-.113.002-.226.002-.338.002h-3.34c-.21 0-.42-.016-.626.064-.088.033-.195.018-.293.02-.252.007-.506-.021-.752.07-.076.028-.168.013-.252.015-.224.005-.451-.02-.666.07-.05.02-.111.012-.168.014-.548.016-1.078.151-1.62.215-.516.062-1.015.195-1.523.294-.783.154-1.564.318-2.332.54-.688.199-1.372.409-2.052.63-.777.25-1.525.571-2.285.862a19.13 19.13 0 00-1.804.819c-.264.133-.545.23-.806.367-.372.196-.733.415-1.1.621-.306.173-.62.332-.92.514-.577.349-1.157.694-1.714 1.073-.59.402-1.16.835-1.729 1.269-.513.391-1.002.811-1.498 1.224-.282.235-.529.505-.812.733-.749.603-1.39 1.316-2.058 2-.31.317-.615.651-.881 1.015-.172.237-.398.431-.578.669-.363.48-.749.942-1.108 1.427-.545.735-1.038 1.501-1.548 2.258-.164.245-.301.508-.449.762-.035.061-.058.13-.1.186-.32.417-.521.9-.76 1.361-.225.435-.458.865-.68 1.301a9.79 9.79 0 00-.296.652c-.291.7-.608 1.389-.866 2.104-.181.502-.345 1.01-.525 1.513a23.185 23.185 0 00-.731 2.546c-.13.56-.274 1.116-.393 1.678-.084.396-.136.799-.204 1.199-.049.289-.098.579-.151.867-.041.222-.022.444-.07.669-.075.353-.086.721-.114 1.084-.016.209.014.421-.067.626-.03.074-.016.167-.019.251-.01.336.032.675-.076 1.005-.029.09-.008.197-.008.295v2.833c0 .168.006.333.055.5.039.132.023.279.028.419.011.308-.029.619.073.92.03.09.01.196.012.295.003.196 0 .389.062.584.043.139.074.306-.066.432-.214-.493-.34-1.015-.472-1.531a37.464 37.464 0 01-.881-4.602 33.807 33.807 0 01-.224-5.734c.076-1.66.279-3.312.609-4.94a31.85 31.85 0 011.459-5.067 31.067 31.067 0 012.267-4.716 31.42 31.42 0 013.439-4.752 30.94 30.94 0 017.704-6.332 31.817 31.817 0 015.281-2.448 33.304 33.304 0 014.766-1.287c.925-.183 1.86-.305 2.799-.399a35.131 35.131 0 013.796-.167c.958.008 1.913.07 2.867.158 1.122.1 2.237.259 3.343.476.441.089.885.167 1.315.308.072.074.184.013.26.075l.002.001zm71.808-11.753c-.127.137-.293.107-.433.063-.195-.061-.388-.06-.585-.06h-4.651c-.197 0-.392-.01-.585.064-.087.033-.194.017-.293.02-.254.007-.506-.021-.752.07-.076.028-.168.013-.252.015-.225.004-.451-.021-.667.07-.041.013-.084.017-.126.013-.452-.009-.889.108-1.333.152-.629.064-1.243.203-1.867.286-.276.036-.548.118-.821.18-1.052.24-2.103.488-3.145.767-.61.164-1.203.394-1.803.594-.24.079-.479.162-.721.237-.564.177-1.094.441-1.646.651-.89.345-1.762.736-2.611 1.174-.488.249-.988.476-1.467.739-.628.346-1.238.723-1.859 1.079-.647.371-1.256.802-1.872 1.22-.661.449-1.298.934-1.936 1.416-.515.388-1.004.808-1.498 1.223-.26.218-.492.463-.751.677-.915.756-1.71 1.634-2.538 2.477-.392.398-.78.808-1.119 1.257-.186.246-.403.468-.603.703-.164.192-.33.383-.484.583-.265.344-.52.696-.782 1.043a36.139 36.139 0 00-1.594 2.329c-.325.507-.659 1.012-.942 1.548-.249.472-.519.933-.781 1.399a.91.91 0 01-.071.104.102.102 0 01-.09.045.108.108 0 01-.087-.052c-.27-.394-.534-.793-.807-1.186-.328-.472-.651-.949-1.002-1.404a.715.715 0 01-.151-.465c.169-.433.402-.835.626-1.241a37.184 37.184 0 012.924-4.493 35.332 35.332 0 013.677-4.131 36.071 36.071 0 017.193-5.369 37.57 37.57 0 015.743-2.653 37.94 37.94 0 016.353-1.704 39.623 39.623 0 015.245-.561 35.741 35.741 0 012.659-.021c1.168.037 2.332.127 3.494.263 1.174.138 2.342.318 3.5.556.442.089.886.167 1.311.323z" fill="#7182D2"></path><path d="M853.991 491.584c.116.041.213.05.277-.092.086-.193.186-.379.285-.566a.12.12 0 01.033-.041.105.105 0 01.143.019c.046.053.089.108.129.165.384.556.706 1.148 1.036 1.736.089.158.193.31.277.472.435.834.884 1.663 1.293 2.51.379.783.746 1.576 1.059 2.388.263.68.568 1.345.785 2.044.246.791.543 1.566.777 2.36.202.684.407 1.369.538 2.074.079.426.217.841.323 1.262.062.244.12.489.167.736.08.426.153.853.224 1.28.044.262.068.528.12.788.073.357.105.721.143 1.079.037.346.141.689.11 1.044.131.42.03.866.148 1.291.04.145.015.308.021.462.009.28-.029.562.069.837.031.089.014.196.014.294 0 1.17.017 2.34-.008 3.509-.01.46-.058.923-.1 1.383-.022.249-.058.499-.06.752 0 .14.003.281-.053.415a.491.491 0 00-.029.166c-.013.463-.121.916-.155 1.374-.049.659-.191 1.301-.291 1.95a20.75 20.75 0 01-.505 2.338 87.781 87.781 0 00-.475 1.831c-.173.698-.436 1.365-.658 2.045-.087.266-.188.527-.286.789-.119.315-.233.633-.366.942-.091.209-.127.392.068.564.033.03.027.105.038.159-.118-.058-.19-.167-.269-.264-.217-.259-.429-.522-.643-.784-.23-.283-.23-.283-.095-.64.099-.263.2-.526.296-.791a42.415 42.415 0 001.693-6.1c.162-.8.287-1.606.39-2.417a45.97 45.97 0 00.275-2.773c.038-.577.048-1.154.082-1.73.031-.55.046-1.099.026-1.647-.028-.788-.027-1.577-.104-2.362-.043-.435-.047-.872-.102-1.306-.079-.629-.118-1.263-.207-1.889-.138-.962-.3-1.92-.501-2.871a45.633 45.633 0 00-1.799-6.29 44.853 44.853 0 00-2.491-5.593 40.253 40.253 0 00-1.513-2.639c-.053-.083-.121-.159-.129-.263z" fill="#5463BE"></path><path d="M774.488 516.71a.346.346 0 01.079-.004c.013.167.047.334.017.503-.137-.146-.081-.33-.096-.499z" fill="#000"></path><path d="M823.482 480.147c-.096.01-.195.024-.26-.075.098-.015.188-.001.26.075z" fill="#5F73C8"></path><path d="M891.539 511.596c2.105.005 4.103.462 5.995 1.391a14.112 14.112 0 014.213 3.138 13.926 13.926 0 012.867 4.696c.337.913.575 1.86.71 2.824a13.12 13.12 0 01.05 3.205 12.626 12.626 0 01-.866 3.43 12.164 12.164 0 01-2.549 3.903c-1.623 1.671-3.576 2.768-5.817 3.364-.599.158-1.211.265-1.829.319a15.25 15.25 0 01-1.264.074 13.526 13.526 0 01-6.531-1.628 13.957 13.957 0 01-5.256-4.846 13.601 13.601 0 01-2.143-6.168c-.209-2.133.092-4.194.926-6.162 1.152-2.722 3.053-4.775 5.674-6.147a12.13 12.13 0 014.301-1.303 14.297 14.297 0 011.519-.09zm-75.823 1.974c-.012 2.363-.591 4.571-1.826 6.594a12.07 12.07 0 01-4.602 4.379 12.358 12.358 0 01-4.946 1.469c-2.427.204-4.738-.239-6.941-1.269a14.091 14.091 0 01-3.309-2.175 14 14 0 01-2.624-3.078 13.577 13.577 0 01-1.671-3.818 13.883 13.883 0 01-.439-2.747c-.164-2.888.559-5.532 2.194-7.912 1.161-1.69 2.671-2.998 4.506-3.933a12.717 12.717 0 016.964-1.314c1.306.123 2.588.429 3.808.911a14.012 14.012 0 015.177 3.568 13.924 13.924 0 013.129 5.451 13.52 13.52 0 01.58 3.874z" fill="#000"></path><path d="M892.57 529.402c-1.411-.03-2.592-.579-3.566-1.587-.769-.793-1.245-1.745-1.365-2.844-.162-1.459.266-2.727 1.358-3.741.64-.595 1.409-.92 2.263-1.053 1.328-.206 2.513.167 3.577.944a4.997 4.997 0 011.806 2.443c.701 2.016-.048 4.275-1.96 5.317a4.305 4.305 0 01-2.113.521zm-85.406-16.204c-.021 1.473-.576 2.689-1.797 3.544a4.22 4.22 0 01-3.127.74c-1.363-.202-2.46-.864-3.305-1.936-.654-.83-1.027-1.78-1.059-2.842-.036-1.226.362-2.305 1.216-3.188a4.002 4.002 0 012.243-1.181c1.788-.305 3.266.285 4.499 1.572.652.681 1.04 1.497 1.249 2.408.067.292.073.584.081.883z" fill="#5463BE"></path><defs><linearGradient id="prefix__prefix__paint0_linear_316_389" x1="322.999" y1="339" x2="1000.5" y2="749" gradientUnits="userSpaceOnUse"><stop stop-color="#FFEED7"></stop><stop offset="1" stop-color="#FFD339"></stop></linearGradient></defs>
  </svg>