<svg class="•57" xmlns="http://www.w3.org/2000/svg" preserveAspectRatio="xMidYMin meet" fill="none" viewBox="0 0 1500 1500">
    <path fill="url(#prefix__a3)" d="M0 0h1500v1500H0z"></path><defs><linearGradient id="prefix__a3" x1="0" y1="0" x2="1500" y2="1500" gradientUnits="userSpaceOnUse"><stop stop-color="#A0C8E0"></stop><stop offset="1" stop-color="#6A8494"></stop></linearGradient></defs>
    <g clip-path="url(#prefix__prefix__prefix__clip0_316_2572)"><path d="M289.32 1500l15.53-112.58 30.68-117.3-17.14-45.59s-15-117.74 41.25-161c56.25-43.26 65.45-47.41 65.45-47.41s135.65 171.93 339 168.87c203.35-3.06 328.18-130.19 328.18-130.19l42-46.11 14.44 49.93L1133 1102l-10.73 32.19 38.38 53.64 56.12 125.69 16.09 69.9 16.92 63.54 13.61 53.09-974.07-.05z" fill="url(#prefix__prefix__prefix__paint0_linear_316_2572)"></path><path d="M512.15 1369.42a922.37 922.37 0 00-19 130.58h-20.89v-.72a926.03 926.03 0 0119.52-134.67 10.46 10.46 0 014.679-6.49 10.516 10.516 0 017.896-1.28c2.697.64 5.03 2.33 6.487 4.68a10.46 10.46 0 011.278 7.9h.03zM1132.47 1500h-21.11c-2.86-14.16-20.25-98.69-36.62-147.37-.45-1.3-.63-2.68-.55-4.06.09-1.37.45-2.72 1.06-3.95.61-1.24 1.46-2.34 2.49-3.25 1.04-.91 2.25-1.6 3.55-2.04 1.31-.44 2.69-.61 4.06-.52 1.38.1 2.72.47 3.95 1.08 1.24.62 2.33 1.47 3.23 2.52.9 1.04 1.59 2.25 2.02 3.56 18.26 54.27 36.94 148 37.72 152 .14.67.2 1.35.2 2.03zM429 1140.38c-36.78 29.35-63.66 67.4-79.87 113.1-55.72 157-49.44 244.8-49.37 245.66v.86h-20.9c-.68-10.16-4.54-98.23 50.55-253.51 17.54-49.43 46.65-90.63 86.53-122.45a10.661 10.661 0 013.648-2.06 10.469 10.469 0 018.172.75 10.5 10.5 0 013.211 2.69 10.528 10.528 0 011.898 3.74 10.454 10.454 0 01-1.104 8.13 10.449 10.449 0 01-2.825 3.09h.06zM1273.43 1500h-21.09c-2.38-11.9-15.44-75.74-36.39-146.32-30.24-101.86-62.93-171.34-94.54-200.93l-2.5-2.36a45.331 45.331 0 00-5.57-4.69 10.454 10.454 0 0112.68-16.62c2.59 1.88 5.04 3.95 7.33 6.19.61.59 1.35 1.3 2.34 2.22 34.83 32.6 68.59 103.39 100.34 210.41 23.4 78.86 37.08 149.42 37.21 150.12.13.65.19 1.32.19 1.98z" fill="#000"></path><path d="M425.09 1016.13S268 1075 329.32 1270.12m95.77-147.55s52.18 120.38 243.46 131m297.12-16.37s119-29.84 172-136.28c32.82-65.94-6.64-89.63-6.64-89.63" stroke="#000" stroke-width="20" stroke-miterlimit="10" stroke-linecap="round"></path><path d="M936.65 1489.14l3.931 26.42c.763 4.62.481 9.34-.825 13.84-3.604 12.26-12.489 12.79-12.489 12.79a33.533 33.533 0 01-14.381.06 39.958 39.958 0 01-14.033-5.94c-12.736-9.16-52.814-87.25-52.814-87.25l-41.878 86.54-37.317-.27 58.708-120.78-31.546-50.05a25.13 25.13 0 00-8.382-8.19c-3.285-2-7.021-3.13-10.861-3.29h-.605c-3.273-.39-6.591.08-9.63 1.35a16.35 16.35 0 00-7.107 5.84c-3.269 3.8-2.797 16.22-2.797 16.22l-7.596.5a102.958 102.958 0 01-3.944-22.71 29.57 29.57 0 013.392-16.14 19.518 19.518 0 017.734-8.22 21.976 21.976 0 0111.43-2.85c6.966.05 14.081 2.24 20.372 6.29a46.843 46.843 0 0115.343 16.19l31.057 56.31 38.203-74.5 33.968.25-52.492 104.93 22.975 40.23s18.714 38.81 37.308 38.95c18.594.13 16.322-26.61 16.322-26.61l7.954.09z" fill="#fff"></path></g><defs><linearGradient id="prefix__prefix__prefix__paint0_linear_316_2572" x1="386" y1="1050" x2="1222.5" y2="1500" gradientUnits="userSpaceOnUse"><stop stop-color="#535353"></stop><stop offset="1" stop-color="#272727"></stop></linearGradient><clipPath id="prefix__prefix__prefix__clip0_316_2572"><path fill="#fff" d="M0 0h1500v1500H0z"></path></clipPath></defs>
    <path d="M775 1185c231.41 0 419-168.12 419-375.5 0-207.383-187.59-375.5-419-375.5-231.407 0-419 168.117-419 375.5 0 207.38 187.593 375.5 419 375.5z" fill="url(#prefix__body)"></path><path d="M775 1185c231.41 0 419-168.12 419-375.5 0-207.383-187.59-375.5-419-375.5-231.407 0-419 168.117-419 375.5 0 207.38 187.593 375.5 419 375.5z" stroke="#000" stroke-width="20"></path><defs><linearGradient id="prefix__body" x1="417" y1="495.5" x2="1096" y2="1147" gradientUnits="userSpaceOnUse"><stop stop-color="#BFC7FF"></stop><stop offset="1" stop-color="#8C95CF"></stop></linearGradient></defs>
    <path d="M844.63 1012.87h141.62M829.06 777.09l-31.89-.02-34.13-.03-43.3-.04" stroke="#000" stroke-width="20" stroke-linecap="round"></path><path d="M805.53 785.89A29.91 29.91 0 11763 777h34.13a29.774 29.774 0 018.4 8.89z" fill="#000" stroke="#000" stroke-width="20" stroke-linecap="round"></path><path d="M1081.06 777l-43.31.04-34.13.03-31.88.02" stroke="#000" stroke-width="20" stroke-linecap="round"></path><path d="M995.26 785.89a29.915 29.915 0 00-4.456 16.588 29.915 29.915 0 0018.886 26.946 29.908 29.908 0 0032.21-6.709 29.836 29.836 0 008.11-15.14 29.862 29.862 0 00-1.55-17.105 29.882 29.882 0 00-10.71-13.43h-34.13a29.957 29.957 0 00-8.36 8.85z" fill="#000" stroke="#000" stroke-width="20" stroke-linecap="round"></path>
    <path d="M366 832l16.5 16c15 22.5 75.8 72.4 199 92 123.2 19.6 226.667-14.167 263-33.5l61-40.5 49 22c53.6 26 127.67 23.167 158 18.5L1178 888c-53.5 175.5-191 240.5-256 263.5-63.5 22.47-210 48.5-348.5-23.5C418.003 1047.16 374 922 366 832z" fill="url(#prefix__paint0_linear_316_2121)"></path><path d="M1182.5 885c-160.5 56.32-224.81 6.02-257.92-13.42a32.51 32.51 0 00-38.35 4.06c-28.08 25.49-93.46 67.68-218.65 67.68-65.693 3.727-219.578-15.02-309.578-119.82" stroke="#000" stroke-width="20" stroke-miterlimit="10"></path><defs><linearGradient id="prefix__paint0_linear_316_2121" x1="466" y1="844.5" x2="1029" y2="1203" gradientUnits="userSpaceOnUse"><stop stop-color="#525252"></stop><stop offset="1" stop-color="#1E1E1E"></stop></linearGradient></defs>
    <path d="M661.719 466.274s.681-50.314 11.212-50.049c10.53.266 30.241-4.165 30.241-4.165l31.002 15.989 25.638-5.424 28.99-24.747 27.071-1.791 27.883 14.121 15.446 18.681 23.411.145 50.96-13.954 24.276 23.68-19.232 52.574-44.507-21.369-17.617-6.041-23.175-7.036-28.05-1.943-32.388-.112-55.638 3.68-50.45 8.949-25.073-1.188z" fill="url(#prefix__paint0_linear_316_1483)"></path><path d="M718.506 479.214s19.322 40.453 64.014 34.31c44.692-6.143 83.522-32.583 83.522-32.583l10.406-17.065-81.463-14.775-84.096 14.041s-8.664 11.898 7.617 16.072z" fill="url(#prefix__paint1_linear_316_1483)"></path><path d="M662.843 469.488s-13.534-58.554 30.087-60.287c15.493-.614 25.434 4.992 32.226 12.21 13.894 14.755 29.392 7.707 38.346-2.386 11.842-13.391 27.482-26.021 44.854-27.17 20.226-1.338 34.215 14.393 42.889 29.474 6.094 10.621 21.799 13.651 33.204 6.683 11.953-7.315 28.35-12.9 48.081-8.683 42.964 9.245 6.064 69.091 6.064 69.091" stroke="#000" stroke-width="18.1" stroke-miterlimit="10" stroke-linecap="round"></path><path d="M630.048 507.636s25.276-45.068 51.452-39.634c40.502 8.395 74.399 69.733 74.399 69.733M800.818 537.27s38.761-65.501 93.251-67.301c54.49-1.801 48.429 57.93 48.429 57.93M682 468s137.209-40.275 226.409 2.982M736.796 506.5s35.104 14.655 86.489 1.675" stroke="#000" stroke-width="20" stroke-miterlimit="10" stroke-linecap="round"></path><path d="M1074 522.5l-37.5-24-141-15.5L703 494.5 555.5 521 469 541.5l-39.5 21c-4.834 9.667-20.801 36.1-46.001 64.5s-17.833 54.167-11 63.5l115 6 250-6 182.5-13.5 282.501-11.5 22.5-4.5v-20.5h-6l-20-7.5c-8.67-2.833-28.1-9.3-36.5-12.5-10.5-4-16.5-5-21.5-7.5-4-2-8.67-7.5-10.5-10l-32.5-44-24-36.5z" fill="url(#prefix__paint2_linear_316_1483)"></path><path d="M794.594 562.777a4.918 4.918 0 01-.32 4.08 4.348 4.348 0 01-3.23 2.21c-.75.16-1.49.28-2.23.38-.74.1-1.46.16-2.18.2a15.903 15.903 0 01-.82 6.69 18.628 18.628 0 01-3.49 6 18.3 18.3 0 01-5.8 4.6 17.502 17.502 0 01-7 1.86h-.41a17.347 17.347 0 01-8-1.63 21.453 21.453 0 01-7-5.32c-4.24-4.78-7.213-11.64-8.92-20.58a54.647 54.647 0 01-1.15-13.56 24.475 24.475 0 012.42-9.69 15.428 15.428 0 012.43-3.4 14.33 14.33 0 013.21-2.5 15.62 15.62 0 013.33-1.37 13.802 13.802 0 013.74-.54 21.736 21.736 0 0110.51 2.12 16.385 16.385 0 014.13 2.47 9.569 9.569 0 012.56 2.82 9.356 9.356 0 011 2.39 4.66 4.66 0 01-.77 3.93 4.341 4.341 0 01-3.4 1.8 5.64 5.64 0 01-3.28-.84 7.894 7.894 0 01-2.52-2.39c-.49-.26-.998-.488-1.52-.68a14.382 14.382 0 00-2.1-.6 11.612 11.612 0 00-2.39-.21 6.642 6.642 0 00-2.41.52c-1.58.76-2.66 2.29-3.24 4.57-1.02 3.44-.92 8.333.3 14.68a38.06 38.06 0 002.81 9.65 21.787 21.787 0 003.08 4.89 6.809 6.809 0 005.24 2.59 9.005 9.005 0 006.35-3.37 8.471 8.471 0 002.17-4.47h-3.36a5.93 5.93 0 01-4.15-1.42 6.11 6.11 0 01-2.31-3.81 4.713 4.713 0 01.88-3.81 4.409 4.409 0 013.41-1.76h.08c.89-.05 1.73-.08 2.54-.1.81-.02 1.61 0 2.39 0 2 0 3.9 0 5.81-.1a54.256 54.256 0 006.68-.76 5.787 5.787 0 014.23 1 6.446 6.446 0 012.7 3.46zM811.264 586.736a5.995 5.995 0 01-4.05-1.34 6.213 6.213 0 01-2.38-3.72c-.58-2.506-1.097-4.79-1.55-6.85-.46-2.07-1-4.42-1.52-7.07-.52-2.65-1.1-5.4-1.64-8.24-.59-3.36-1.1-6.4-1.54-9.14-.44-2.74-.76-5.18-1-7.31s-.31-3.72-.35-5.1a25.08 25.08 0 01.11-3.52 8.975 8.975 0 01.51-2.35c.22-.576.516-1.121.88-1.62a5.518 5.518 0 014-2.34 8.548 8.548 0 012.28.26 7.59 7.59 0 013 1.57c.458.312.884.671 1.27 1.07.39.4.82.87 1.26 1.41a44.968 44.968 0 014.12 6c2.42 4.047 5.336 9.557 8.75 16.53.36.66.7 1.33 1 2 .3.67.62 1.36.93 2 .08-.68.15-1.38.19-2.09a17.79 17.79 0 01.28-2.08c.32-3.58.633-6.773.94-9.58.31-2.81.64-5.26 1-7.37.23-1.31.44-2.46.62-3.46.162-.884.372-1.758.63-2.62.205-.817.459-1.622.76-2.41a5.396 5.396 0 013.48-3.07 6.496 6.496 0 015.24 1 8.68 8.68 0 011.81 1.59 13.632 13.632 0 011.59 2.41 29.59 29.59 0 011.53 3.48c.5 1.33 1 2.9 1.58 4.74.666 2.1 1.333 4.517 2 7.25.666 2.734 1.416 5.794 2.25 9.18a807.014 807.014 0 013.42 15.55c.44 2.12.91 4.49 1.41 7.11a4.533 4.533 0 01-2.348 5.176 4.526 4.526 0 01-1.972.484h-.08a5.795 5.795 0 01-4.14-1.42 6.512 6.512 0 01-2.36-3.8 314.394 314.394 0 00-1.23-6.28l-1.36-6.48c-.507-2.426-1.06-4.95-1.66-7.57a222.744 222.744 0 00-1.69-6.85c-.1 1.14-.21 2.37-.36 3.71-.15 1.34-.28 2.73-.42 4.21-.267 2.72-.494 5.37-.68 7.95-.187 2.58-.367 4.86-.54 6.84-.18 2-.3 3.58-.38 4.8-.08 1.22-.12 1.86-.11 1.91a4.44 4.44 0 01-1.31 2.95 4.577 4.577 0 01-3.09 1.27h-.09a6.357 6.357 0 01-3.58-1.07 6.572 6.572 0 01-2.45-2.92c-1-2.31-1.92-4.42-2.79-6.31-.87-1.89-1.87-4.06-3-6.48-1.13-2.42-2.29-4.95-3.52-7.59-1.1-2.31-2.11-4.37-3-6.18-.89-1.81-1.79-3.46-2.54-4.94.19 1.46.46 3.07.8 4.82.34 1.75.7 3.7 1.09 5.83.493 2.62.99 5.13 1.49 7.53.5 2.4.946 4.534 1.34 6.4.39 1.87.85 3.94 1.38 6.23a4.689 4.689 0 01-.64 4 4.436 4.436 0 01-3.41 1.92l-.16-.01zM888.415 523.319a6.497 6.497 0 013.55 2.72 5.246 5.246 0 01.82 4.15 101.765 101.765 0 01-3.55 13.9c-1.42 4.2-2.96 8.2-4.62 12a439.42 439.42 0 007.49 7.92 1061.8 1061.8 0 007.84 8l.63.64a6.088 6.088 0 011.84 4 4.774 4.774 0 01-1.32 3.71 5.151 5.151 0 01-3 1.27 6.23 6.23 0 01-2.52-.41 5.861 5.861 0 01-2.25-1.53l-.65-.73a1932.406 1932.406 0 01-6.38-6.41 296.751 296.751 0 01-6.33-6.59c-.233.52-.473 1.04-.72 1.56l-.74 1.48c-.953 1.86-1.9 3.76-2.84 5.7-.93 1.94-1.84 3.9-2.71 5.86a4.355 4.355 0 01-4 2.68 5.468 5.468 0 01-3.19-.84 6.383 6.383 0 01-3-3.3 5.25 5.25 0 010-4.15c.98-2 1.943-4 2.89-6 .95-2 1.9-3.95 2.84-5.87.57-1 1.1-2.1 1.61-3.17.51-1.07 1-2.13 1.51-3.18-3.12-3.72-6.12-7.53-9-11.43a122.031 122.031 0 01-7.89-12.26 5.432 5.432 0 01-.67-4.19 4.224 4.224 0 012.53-2.94 5.63 5.63 0 014.21.07 6.517 6.517 0 013.39 3c1.767 3.12 3.653 6.12 5.66 9a139.453 139.453 0 006.38 8.45c1.17-3 2.27-6 3.27-9.24a84.003 84.003 0 002.51-10.46 4.517 4.517 0 012.28-3.13 5.002 5.002 0 014.13-.28z" fill="#000"></path><path d="M1148.14 619.09S1110 568.77 1082.86 535a96.571 96.571 0 00-61-35c-85.13-12.78-294.76-39.4-549.6 40.11-20.25 6.33-39.62 21.92-53.48 40-16.93 24.21-49.63 61.79-51.22 97.1a15.375 15.375 0 004.31 11.311 15.385 15.385 0 0011.16 4.689l176.16-.72" stroke="#000" stroke-width="20" stroke-miterlimit="10"></path><path d="M1221.53 637.51c-105.4-53.61-631.53-25-681 46.39 17 11.1 11 8.52 54.26 8.52 57 1 115.3 5.35 232-8.52 146.08-17.37 295.53-19 390.88-17.6 17.25.26 19.33-20.95 3.86-28.79z" stroke="#000" stroke-width="20" stroke-miterlimit="10"></path><defs><linearGradient id="prefix__paint0_linear_316_1483" x1="806.094" y1="396.734" x2="812.164" y2="482.301" gradientUnits="userSpaceOnUse"><stop stop-color="#9299D3"></stop><stop offset="1" stop-color="#929BD5"></stop></linearGradient><linearGradient id="prefix__paint1_linear_316_1483" x1="791.346" y1="449.342" x2="795.546" y2="512.836" gradientUnits="userSpaceOnUse"><stop stop-color="#8188BB"></stop><stop offset="1" stop-color="#4D5275"></stop></linearGradient><linearGradient id="prefix__paint2_linear_316_1483" x1="478.5" y1="352" x2="900" y2="735.5" gradientUnits="userSpaceOnUse"><stop stop-color="#FFB4B4"></stop><stop offset="1" stop-color="#FE5050"></stop></linearGradient></defs>
  </svg>