<svg class="•57" xmlns="http://www.w3.org/2000/svg" preserveAspectRatio="xMidYMin meet" fill="none" viewBox="0 0 1500 1500">
    <path fill="url(#prefix__a5)" d="M0 0h1500v1500H0z"></path><defs><linearGradient id="prefix__a5" x1="0" y1="0" x2="1500" y2="1500" gradientUnits="userSpaceOnUse"><stop stop-color="#FFC7FB"></stop><stop offset="1" stop-color="#F94CEC"></stop></linearGradient></defs>
    <g clip-path="url(#prefix__clip0_316_2907)"><path d="M295.8 1500s-47.94-91.54 28.64-134.76c0 0-62-101.54 67.13-159.88 0 0-37.4-104.09 81.15-137.65 0 0 116.88 142.77 354.85 117.93 0 0 170.91-29.46 256-122.1 0 0 45.53 17.87 73.44 124 0 0 102.26 45.87 83.4 145.87 0 0 95.08 77.12 34 166.56l-978.61.03z" fill="url(#prefix__paint0_linear_316_2907)"></path><path d="M511.711 1369.31a922.445 922.445 0 00-19 130.69h-20v-.69a924.994 924.994 0 0119.51-134.6 10.03 10.03 0 014.513-6.07 10.03 10.03 0 017.473-1.17c2.549.6 4.759 2.18 6.157 4.39a10.01 10.01 0 011.317 7.45h.03zM1132 1500h-20.2c-2.81-13.91-20.24-98.71-36.65-147.51a9.998 9.998 0 012.79-10.89c1-.89 2.16-1.56 3.42-1.98a9.97 9.97 0 017.74.57c1.18.6 2.24 1.44 3.1 2.45.86 1.02 1.5 2.2 1.9 3.47 18.25 54.24 36.92 148 37.71 151.94.13.64.19 1.3.19 1.95z" fill="#000"></path><path d="M1288.93 1500h-22.8c20.79-39.69 22-78.13 3.53-114.29a143.49 143.49 0 00-31.4-40.7c-2.46-2.19-4-3.34-4-3.38l-4.67-3.51.64-5.8c4.77-43.15-6.51-78.89-33.51-106.23-20.47-20.72-42.86-28.77-43.08-28.85l-5.06-1.78-.43-.15-1.18-5.71c-21.57-106.89-81.3-131.86-90.9-135.22l-581.83 25.41a73.754 73.754 0 00-29 7.28c-19.43 9.44-33.31 22.55-41.37 39.11-17.1 35.17-2.77 75.24-2.63 75.64l3.69 10.06-3.53 1.12-6.69 2.13c-33.58 10.6-55.77 28-65.94 51.64-17.1 39.76 4.71 85.44 4.93 85.89l4 8.19-7.61 4.9c-31.42 20.18-44.19 49.55-38 87.28 3.4 20.58 11.61 38.18 16.27 46.94h-22.9a174.929 174.929 0 01-13.65-43.6c-7.1-42.94 6.7-78.35 39.95-102.93-6.46-16.88-18.1-56.87-1.94-94.64 11.57-27 34.82-47.19 69.17-60-4-16.31-9-49.76 6.31-81.44 12.85-26.58 36.9-45.75 71.48-57l1.33-.43 1.39-.06 599.05-26.16 1.54.41c.86.23 21.41 6 44.79 27.92 20.39 19.15 47.24 55 61 118a152.254 152.254 0 0144.7 30.87c21.37 21.35 45.36 59 40.51 118a163.835 163.835 0 0136.8 47.37c14.11 27.81 24.99 70.96 1.04 123.72z" fill="#000"></path><path d="M844.66 1500h-20.53l-3.2-51.29-16.43-263.08 20.45-1.27 5.2 83.24 14.51 232.4z" fill="#000"></path><path d="M391.57 1205.36s113.92 99.14 315.74 99.14M909.141 1304.5S1033 1306.4 1157 1187.57M324.439 1357.16s36.7 65.24 111 80.93M1240.39 1333.44s0 48.45-73.06 70.34M834.689 1448.75c43.06-1.7 107.46-6.84 146-15M673.09 1443.87s71.64 5.43 147.84 4.84" stroke="#000" stroke-width="20" stroke-miterlimit="10" stroke-linecap="round"></path></g><defs><linearGradient id="prefix__paint0_linear_316_2907" x1="407.998" y1="976.5" x2="1157" y2="1546" gradientUnits="userSpaceOnUse"><stop stop-color="#FEFC41"></stop><stop offset=".522" stop-color="#F96FDF"></stop><stop offset="1" stop-color="#5AECFF"></stop></linearGradient><clipPath id="prefix__clip0_316_2907"><path fill="#fff" d="M0 0h1500v1500H0z"></path></clipPath></defs>
    <path d="M775 1185c231.41 0 419-168.12 419-375.5 0-207.383-187.59-375.5-419-375.5-231.407 0-419 168.117-419 375.5 0 207.38 187.593 375.5 419 375.5z" fill="url(#prefix__body)"></path><path d="M775 1185c231.41 0 419-168.12 419-375.5 0-207.383-187.59-375.5-419-375.5-231.407 0-419 168.117-419 375.5 0 207.38 187.593 375.5 419 375.5z" stroke="#000" stroke-width="20"></path><defs><linearGradient id="prefix__body" x1="417" y1="495.5" x2="1096" y2="1147" gradientUnits="userSpaceOnUse"><stop stop-color="#BFC7FF"></stop><stop offset="1" stop-color="#8C95CF"></stop></linearGradient></defs>
    <path d="M844.63 1012.87h141.62" stroke="#000" stroke-width="20" stroke-linecap="round"></path><path d="M764.05 841.24c31.337 0 56.74-25.404 56.74-56.74 0-31.337-25.403-56.74-56.74-56.74-31.337 0-56.74 25.403-56.74 56.74 0 31.336 25.403 56.74 56.74 56.74zm284.14 0c31.34 0 56.74-25.404 56.74-56.74 0-31.337-25.4-56.74-56.74-56.74-31.34 0-56.74 25.403-56.74 56.74 0 31.336 25.4 56.74 56.74 56.74z" fill="#fff" stroke="#000" stroke-width="20" stroke-miterlimit="10"></path><path d="M764.05 770.5c7.18 0 13-5.82 13-13s-5.82-13-13-13-13 5.82-13 13 5.82 13 13 13zm284.14 0c7.18 0 13-5.82 13-13s-5.82-13-13-13-13 5.82-13 13 5.82 13 13 13z" fill="#000"></path>
    <path d="M695 882.42v6.14a7.746 7.746 0 01-.67 3.22c-1.26 2.86-3.34 3-3.34 3a7.817 7.817 0 01-6.39-1.32c-2.64-2.11-9.24-20.21-9.24-20.21l-12.71 20.21H654l17.8-28.21-5.59-11.59a4.654 4.654 0 00-4.07-2.64H662a4.713 4.713 0 00-4.13 1.7c-.89.89-1.21 3.78-1.21 3.78l-1.78.13a22.972 22.972 0 01-.13-5.28 7.776 7.776 0 011.34-3.76 5.694 5.694 0 014.83-2.61 7.816 7.816 0 014.51 1.43 8.67 8.67 0 013 3.74l5.26 13.05 11.44-17.4H693l-15.8 24.51 3.94 9.32s3 9 7.31 9 4.71-6.22 4.71-6.22l1.84.01z" fill="#000"></path>
    <path d="M365.32 719.27L347 619.12 264.5 384l20.57-6.1L332 414.84l88.86 26.3 57 2.59 56.82-19.5L594.83 389l47.09-45 22.91-46.4L693 216l18.81 6.18L768 325.5l72.43 45.6 68.14 17.24 67.3-1.57 59.54-18.87 86.59-59.4 22.17-22.57 7.58 19.47-24.39 229.29 16.42 84.43-167.56-10.55-177 10.55-256.83 44.36L392.05 709l-26.73 10.27z" fill="url(#f2f32sd)"></path><path d="M693 207.5a38.004 38.004 0 0035.107-23.458 37.994 37.994 0 00-8.237-41.412A37.998 37.998 0 00655 169.5a38.001 38.001 0 0038 38z" fill="#FFDE38"></path><path d="M1160 285.5c8.31 0 16.43-2.463 23.33-7.078a41.992 41.992 0 0017.86-43.116 42.012 42.012 0 00-11.49-21.504 42.032 42.032 0 00-21.51-11.495 41.976 41.976 0 00-24.26 2.39 41.947 41.947 0 00-18.85 15.469A41.962 41.962 0 001118 243.5a41.986 41.986 0 0012.3 29.699A42.01 42.01 0 001160 285.5z" fill="#FFC707"></path><path d="M255 384.5a41 41 0 10-.001-81.998A41 41 0 00255 384.5z" fill="#FFEF5E"></path><path d="M719 478.5c17.67 0 32-26 32-58s-14.33-58-32-58-32 26-32 58 14.33 58 32 58z" fill="url(#prefix__b)"></path><path d="M453 280.5a45 45 0 100-90.002 45 45 0 000 90.002zm496-57a45 45 0 100-90.002 45 45 0 000 90.002z" fill="#EFD00F"></path><path d="M409.61 437.81l34.39-75.3 15-64.91 1.52-22.099L495.5 302.5l43.8 34.7 59.7 33.9 1.25 13.4-65.68 39.73-74.05 19.5-50.91-5.92z" fill="url(#prefix__c)"></path><path d="M815.71 355.85L884 297.6l61.499-80.1 21.181 39.6 40.14 68.51 28.59 42.29L956 391.5l-69.93-7.65-70.36-28z" fill="url(#prefix__d)"></path><path d="M365.32 719.28s337-143.17 774.3-103.93l-12.26-80.66S782.5 461 351.62 632.55l13.7 86.73z" stroke="#000" stroke-width="20" stroke-miterlimit="10"></path><path d="M1127.36 534.69l25.06-235.54c.26-2.45-.25-4.921-1.45-7.07a11.856 11.856 0 00-5.27-4.932 11.895 11.895 0 00-13.55 2.352l-32.5 32.72C993.51 429.05 815 406.63 738.6 276.88L709.83 228a11.904 11.904 0 00-11.504-5.79 11.9 11.9 0 00-10.036 8.07l-15.43 46.36c-50.81 152.62-233.72 214-366.28 122.82L289.8 388c-9.46-6.5-21.74 2.84-18 13.69l79.81 230.88" stroke="#000" stroke-width="20" stroke-miterlimit="10"></path><path d="M405.85 443.73s44.35-65 53.85-151.8a11.898 11.898 0 017.865-9.945 11.896 11.896 0 0112.365 2.805c26.7 26.69 73.67 73 136.62 92.58m426.97-7.27s-57.83-55.49-86.87-138a11.889 11.889 0 00-21.29-2.4C915 262.16 872.79 320.91 815.71 355M693 214.5a45 45 0 100-90.002 45 45 0 000 90.002v0zM255.5 389a45 45 0 100-90.002 45 45 0 000 90.002zm198-109a45 45 0 100-90.002 45 45 0 000 90.002z" stroke="#000" stroke-width="20" stroke-miterlimit="10"></path><path d="M948.5 224a45 45 0 100-90.002 45 45 0 000 90.002v0zm212 65a44.995 44.995 0 0041.57-27.779 45.023 45.023 0 002.57-26 45.063 45.063 0 00-12.32-23.041 44.98 44.98 0 00-23.04-12.315 44.991 44.991 0 00-26 2.56 45.056 45.056 0 00-20.2 16.574A45.037 45.037 0 001115.5 244a44.996 44.996 0 0045 45zM724.83 480.74c19.15-2 31.86-30.42 28.37-63.44-3.49-33.02-21.84-58.13-41-56.11-19.16 2.02-31.86 30.43-28.37 63.44 3.49 33.01 21.84 58.14 41 56.11z" stroke="#000" stroke-width="20" stroke-miterlimit="10"></path><defs><linearGradient id="f2f32sd" x1="231" y1="301.5" x2="1058" y2="629.5" gradientUnits="userSpaceOnUse"><stop stop-color="#FFF367"></stop><stop offset="1" stop-color="#FFC401"></stop></linearGradient><linearGradient id="prefix__b" x1="719" y1="362.5" x2="719" y2="478.5" gradientUnits="userSpaceOnUse"><stop stop-color="#57EBFF"></stop><stop offset="1" stop-color="#4F45EF"></stop></linearGradient><linearGradient id="prefix__c" x1="504.93" y1="257.615" x2="504.93" y2="443.73" gradientUnits="userSpaceOnUse"><stop stop-color="#F1DC12"></stop><stop offset="1" stop-color="#E8A803"></stop></linearGradient><linearGradient id="prefix__d" x1="925.56" y1="199" x2="925.56" y2="391.5" gradientUnits="userSpaceOnUse"><stop stop-color="#F1DC12"></stop><stop offset="1" stop-color="#E8A803"></stop></linearGradient></defs>
  </svg>