<svg class="•60" xmlns="http://www.w3.org/2000/svg" preserveAspectRatio="xMidYMin meet" fill="none" viewBox="0 0 1500 1500">
    <g clip-path="url(#prefix__clip0_367_88)"><path fill="url(#prefix__paint0_linear_367_88)" d="M0 0h1500v1500H0z"></path><path d="M1371 1477.51l96.65 114.69a16.25 16.25 0 005.63 4.3c2.17 1 4.54 1.51 6.93 1.5 2.39-.01 4.75-.55 6.9-1.58a16.3 16.3 0 005.59-4.36l94.38-114.63a8.568 8.568 0 001.86-4.36c.19-1.6-.07-3.22-.76-4.68a8.47 8.47 0 00-3.13-3.55 8.542 8.542 0 00-4.55-1.34h-67.69V1224h-67.79v239.48h-67.5c-1.62.01-3.21.47-4.58 1.35a8.464 8.464 0 00-3.14 3.59 8.519 8.519 0 00-.73 4.72c.22 1.61.89 3.13 1.93 4.37zM75.646 1329.77l79.519 94.45a13.287 13.287 0 004.633 3.54 13.34 13.34 0 005.696 1.24c1.966-.01 3.906-.46 5.681-1.3a13.462 13.462 0 004.594-3.59l77.653-94.4a7.063 7.063 0 001.527-3.59 7.054 7.054 0 00-.623-3.86 6.988 6.988 0 00-2.58-2.92 6.903 6.903 0 00-3.741-1.1h-55.691V1121h-55.773v197.22H81.014c-1.337 0-2.645.39-3.771 1.11a6.987 6.987 0 00-2.588 2.96 7.012 7.012 0 00-.594 3.88 7.007 7.007 0 001.585 3.6zM14.028 647.932l97.971 117.143a16.52 16.52 0 005.708 4.391 16.406 16.406 0 0014.017-.079 16.521 16.521 0 005.659-4.454l95.673-117.082a8.756 8.756 0 001.881-4.454 8.781 8.781 0 00-.767-4.779 8.688 8.688 0 00-3.179-3.629 8.593 8.593 0 00-4.609-1.362h-68.614V389H89.053v244.607H20.641a8.603 8.603 0 00-4.645 1.37 8.692 8.692 0 00-3.189 3.67 8.777 8.777 0 001.22 9.285zM338.409 241.592l68.097 80.344a11.483 11.483 0 003.967 3.012 11.543 11.543 0 009.743-.054 11.466 11.466 0 003.934-3.055l66.498-80.302a5.954 5.954 0 00.775-6.333 5.979 5.979 0 00-2.209-2.489 6.034 6.034 0 00-3.204-.934h-47.691V64h-47.762v167.767h-47.551a6.04 6.04 0 00-3.229.939 5.999 5.999 0 00-2.216 2.518 5.949 5.949 0 00.848 6.368zM842.154 401.098l-40.857 48.451A6.882 6.882 0 01795.99 452a6.893 6.893 0 01-5.28-2.51l-39.899-48.426a3.61 3.61 0 01.861-5.32 3.606 3.606 0 011.922-.563h28.615V294h28.657v101.173h28.53a3.606 3.606 0 012.758 5.925zM280.028 939.144l49.644 58.878a8.382 8.382 0 002.892 2.208 8.368 8.368 0 009.971-2.28l48.48-58.847a4.376 4.376 0 00.564-4.64 4.38 4.38 0 00-3.946-2.509h-34.769V809h-34.819v122.944h-34.666a4.389 4.389 0 00-3.97 2.533 4.376 4.376 0 00.619 4.667zM1398.74 726.219l35.58 42.625a6.05 6.05 0 002.08 1.598 5.89 5.89 0 002.54.558 5.995 5.995 0 002.55-.587 6.033 6.033 0 002.05-1.621l34.75-42.603c.38-.464.62-1.026.69-1.62a3.248 3.248 0 00-.28-1.739c-.26-.542-.66-1-1.16-1.321a3.114 3.114 0 00-1.67-.495h-24.92V632h-24.96v89.006h-24.85c-.6.001-1.18.174-1.69.499-.5.324-.9.788-1.16 1.335a3.205 3.205 0 00-.26 1.755c.08.598.32 1.162.71 1.624zM1161.32 1045.1l63.7 76.05c1.02 1.22 2.28 2.19 3.71 2.85 1.43.67 2.99 1.01 4.57 1 1.57-.01 3.13-.37 4.55-1.05s2.68-1.67 3.68-2.89l62.21-76.01c.67-.83 1.09-1.83 1.22-2.89.13-1.06-.05-2.14-.5-3.1a5.569 5.569 0 00-2.07-2.36c-.89-.57-1.93-.88-2.99-.88h-44.62V877h-44.68v158.8h-44.48c-1.07 0-2.12.31-3.02.89-.9.58-1.62 1.41-2.08 2.38a5.72 5.72 0 00-.47 3.13c.14 1.07.58 2.08 1.27 2.9zM1129.48 277.515l119.94 142.288a20.246 20.246 0 006.99 5.333A20.195 20.195 0 001265 427a20.26 20.26 0 008.57-1.959 20.263 20.263 0 006.93-5.411l117.12-142.214a10.6 10.6 0 002.3-5.41c.24-1.985-.08-3.998-.94-5.805a10.54 10.54 0 00-3.89-4.409 10.563 10.563 0 00-5.64-1.653h-84V-37h-84.12v297.114h-83.75a10.586 10.586 0 00-9.59 6.122 10.633 10.633 0 00-.9 5.857c.27 1.998 1.1 3.879 2.39 5.422z" fill="#fff" fill-opacity=".2"></path></g><defs><linearGradient id="prefix__paint0_linear_367_88" x1="0" y1="0" x2="1840" y2="2308.5" gradientUnits="userSpaceOnUse"><stop stop-color="#FF9C9C"></stop><stop offset="1" stop-color="#FF1E1E"></stop></linearGradient><clipPath id="prefix__clip0_367_88"><path fill="#fff" d="M0 0h1500v1500H0z"></path></clipPath></defs>
    <g clip-path="url(#prefix__clip0_1330_728)"><path d="M1263 1500H289.328l3.73-66.49 22.17-107.35 45.77-123.16 57.62-67.7s38.18-26.49 102.86-54.62 195.37-13.16 195.37-13.16 198.15-21 351.312 38.59C1221.32 1165.7 1263 1500 1263 1500z" fill="#A4B4EE"></path><path d="M435.602 1124.55l51.93-24.52 38.32 60.74 20.78 69.34-49.09-2.32-16.92-47.11-17.58-29.85-27.44-26.28z" fill="url(#prefix__paint0_linear_1330_728)"></path><path d="M976.76 1145.73l33.09-22.96h11.24l41.6 99.56-33.19 4.81-13.1-3.5-22.31-48.69-17.33-29.22z" fill="url(#prefix__paint1_linear_1330_728)"></path><path d="M1273 1500h-20.19c-4.9-24.54-57.1-278.34-131.07-347.58-76.33-71.44-231.579-74.83-235.219-74.9H587.29c-3.46.23-47.569 3.5-97.759 25.85-30.31 13.49-56.9 31.21-79 52.67-27.59 26.74-48.38 59.47-61.79 97.29-55.76 157.15-49.46 245-49.39 245.85v.82h-20c-.66-9.94-4.61-98 50.54-253.36 14.51-40.9 37.07-76.32 67.06-105.28 23.93-23.12 52.6-42.15 85.18-56.57 55.32-24.47 102.42-27.15 104.4-27.25h300.18c1.68 0 41.83.65 92.55 10.67 68.759 13.59 121.289 37 156.129 69.62 34.84 32.62 68.48 103.27 100.21 210.21 23.4 78.84 37.07 149.38 37.2 150.08.13.62.19 1.25.2 1.88z" fill="#000"></path><path d="M1184.59 1500H455.831l-15.55-268.36h678.329l65.98 268.36z" fill="url(#prefix__paint2_linear_1330_728)"></path><path d="M1196.42 1500h-23.66l-63.16-256.87H452.459l14.88 256.87h-23l-15.19-262.11a16.78 16.78 0 014.545-12.48 16.73 16.73 0 015.555-3.89c2.097-.9 4.356-1.37 6.64-1.37h668.601c3.75 0 7.4 1.26 10.35 3.57 2.95 2.32 5.04 5.55 5.94 9.2l65.64 267.08z" fill="#000"></path><path d="M1108.85 1500H531.58L513 1295.03h552.39l10.49 49.48 7.04 33.21.01.06 25.92 122.22z" fill="url(#prefix__paint3_linear_1330_728)"></path><path d="M1120.59 1500h-23.49l-41-193.48H525.579l17.55 193.48h-23.08l-10.82-119.27-2-22.23-5.14-56.67a16.771 16.771 0 014.316-12.83 16.767 16.767 0 015.616-4.03 16.619 16.619 0 016.768-1.43h542.331c3.84 0 7.57 1.32 10.56 3.74s5.05 5.79 5.85 9.55l9 42.66 34.06 160.51z" fill="#000"></path><path d="M481.762 1095.24s30.738 9.26 77 136.4h-63.26s-14.94-57.5-59.9-116.25M1011.05 1115.82s31.45 5.18 64.43 115.82h-63.21s-12.671-53-42.551-89.34" stroke="#000" stroke-width="22.98" stroke-miterlimit="10"></path><path d="M642.18 1451c-2.966 0-5.46-.06-7.48-.17-2.02-.11-3.686-.24-5-.39-1.28-.15-2.29-.3-3-.45l-1.55-.33a9.85 9.85 0 01-2.76-1.11 11.176 11.176 0 01-3.16-2.79 16.16 16.16 0 01-2.46-4.12 34.806 34.806 0 01-1.37-3.95c-.42-1.45-.803-3.12-1.15-5a98.195 98.195 0 01-1.49-9.8c-.393-3.71-.76-7.87-1.1-12.47-.34-3.86-.573-7.61-.7-11.25-.12-3.63-.23-6.88-.31-9.74-.08-2.86-.12-5.2-.13-7-.01-1.8 0-2.8 0-3a5.856 5.856 0 012.07-4.79 6.903 6.903 0 012.431-1.38 6.711 6.711 0 012.779-.29 8.098 8.098 0 015.21 2.68 7.416 7.416 0 012.12 5.23v2.28c0 1.44.05 3.38.12 5.79.07 2.41.16 5.2.28 8.35.12 3.15.27 6.41.48 9.75.28 4 .55 7.65.83 10.91.28 3.26.62 6.2 1 8.8.38 2.6.76 4.42 1.07 5.9.31 1.48.57 2.6.8 3.34 2.064.26 4.141.39 6.22.39 2.494.04 5.11.04 7.85 0 2.75 0 5.49-.11 8.22-.22 2.73-.11 5.25-.24 7.53-.39.978-.08 1.961.04 2.893.35.932.3 1.794.79 2.537 1.43a8.215 8.215 0 013 5 6.397 6.397 0 01-1.175 5.18 6.354 6.354 0 01-2.07 1.76c-.808.44-1.7.69-2.615.75h-1.33l-3.21.17c-1.33.07-2.85.15-4.55.22-1.7.07-3.51.11-5.44.11-1 .08-2 .12-2.89.12l-2.5.13zM710.211 1450.84c-4.472.01-8.907-.82-13.07-2.45a40.732 40.732 0 01-12.15-7.46 44.314 44.314 0 01-9.4-11.91 47.11 47.11 0 01-5.25-15.82 44.274 44.274 0 01.56-16.7 32.005 32.005 0 016.54-12.81 31.24 31.24 0 0110.719-8 31.385 31.385 0 0113.081-2.8c4.376-.01 8.712.85 12.76 2.51a37.029 37.029 0 0111.18 7.18c3.7 3.52 6.712 7.69 8.88 12.31a54.482 54.482 0 014.7 15.86c.56 3.59.725 7.23.49 10.86-.191 2.9-.687 5.78-1.48 8.58a30.84 30.84 0 01-2.7 6.51 33.287 33.287 0 01-3.18 4.68 25.448 25.448 0 01-9.55 7.07 30.434 30.434 0 01-12.13 2.39zm-7.43-63.47c-2.623 0-5.215.56-7.597 1.66a18.217 18.217 0 00-6.203 4.69 18.476 18.476 0 00-4 8.24 29.489 29.489 0 00-.21 10.58 30.811 30.811 0 003.27 10.35 28.041 28.041 0 005.75 7.46 23.01 23.01 0 007.22 4.51c2.443.98 5.048 1.49 7.68 1.51a15.118 15.118 0 0011.83-5c3.893-4.61 5.183-11.27 3.87-20a36.425 36.425 0 00-3.19-11.14 26.393 26.393 0 00-5.24-7.4 18.84 18.84 0 00-6.4-4.12 19.21 19.21 0 00-6.78-1.34zM788.161 1450.84c-4.468.02-8.9-.82-13.06-2.45a40.763 40.763 0 01-12.159-7.46 44.298 44.298 0 01-9.401-11.91 46.819 46.819 0 01-5.239-15.82 44.068 44.068 0 01.549-16.7 32.155 32.155 0 016.551-12.81 31.2 31.2 0 0110.713-8 31.208 31.208 0 0113.077-2.8c4.39-.01 8.739.84 12.8 2.51a36.953 36.953 0 0111.169 7.18 40.983 40.983 0 018.891 12.31 54.728 54.728 0 014.7 15.86c.552 3.59.713 7.23.479 10.86-.191 2.9-.687 5.78-1.479 8.58a30.426 30.426 0 01-2.7 6.51 32.229 32.229 0 01-3.18 4.68 25.406 25.406 0 01-9.54 7.07 30.627 30.627 0 01-12.171 2.39zm-7.43-63.47c-2.622 0-5.213.57-7.595 1.66a18.24 18.24 0 00-6.204 4.69 18.465 18.465 0 00-4 8.24 29.49 29.49 0 00-.211 10.58c.469 3.62 1.58 7.12 3.281 10.35a27.62 27.62 0 005.75 7.46 22.972 22.972 0 007.219 4.51c2.44.98 5.042 1.49 7.671 1.51 2.218.09 4.428-.32 6.472-1.18a15.066 15.066 0 005.357-3.82c3.894-4.61 5.187-11.27 3.88-20a36.65 36.65 0 00-3.19-11.14 26.243 26.243 0 00-5.25-7.4 18.794 18.794 0 00-6.389-4.12 19.494 19.494 0 00-6.791-1.34zM853.658 1451c-1.902 0-3.801-.15-5.68-.45-1.847-.3-3.666-.75-5.44-1.34a22.089 22.089 0 01-7.6-3.89 16.002 16.002 0 01-5.57-8 6.637 6.637 0 01.55-5.4 6.076 6.076 0 011.835-2.04c.759-.54 1.63-.89 2.545-1.03a7.374 7.374 0 015.45 1.06 8.256 8.256 0 013.55 4.4c.535.39 1.112.73 1.72 1 1.272.54 2.623.88 4 1 1.742.22 3.501.26 5.25.11 1.609-.11 3.187-.49 4.67-1.12 1.91-.81 3-1.76 3.31-2.84.295-1.03.315-2.13.06-3.17a7.791 7.791 0 00-1.293-2.95 7.792 7.792 0 00-2.377-2.17 23.436 23.436 0 00-3.88-1.95c-1.553-.63-3.41-1.32-5.57-2.06-2.38-.82-4.76-1.69-7.14-2.62a31.754 31.754 0 01-6.83-3.73 23.643 23.643 0 01-6.834-6.99 23.577 23.577 0 01-3.416-9.16c-.773-4-.356-8.14 1.2-11.91 1.497-3.23 3.84-6 6.78-8a27.07 27.07 0 0113.79-4.68c2.551-.15 5.111.02 7.62.5a29.71 29.71 0 017 2.29 22.086 22.086 0 018 6.46 19.377 19.377 0 013.8 9c.199.9.188 1.84-.034 2.73-.223.9-.649 1.73-1.246 2.44a6.643 6.643 0 01-2.153 1.7 6.65 6.65 0 01-2.657.7 7.588 7.588 0 01-5.39-1.95 7.94 7.94 0 01-2.82-5.07c-.12-.37-.3-.83-.54-1.39a4.459 4.459 0 00-2.13-1.73 11.226 11.226 0 00-3.4-1 15.59 15.59 0 00-3.8-.11c-1.259.1-2.503.35-3.71.72-1.121.34-2.176.86-3.12 1.56a5.933 5.933 0 00-2.74 3.56 9.019 9.019 0 00-.1 3.23 9.43 9.43 0 001.06 3.18 8.238 8.238 0 002.26 2.39c1.213.85 2.522 1.56 3.9 2.11 1.6.67 3.59 1.42 6 2.23 2.23.75 4.51 1.56 6.83 2.45 2.326.89 4.54 2.05 6.6 3.45a24.327 24.327 0 0110.51 15c.79 3.06.828 6.27.11 9.35a16.045 16.045 0 01-4 7.24c-3.126 3.42-7.61 5.57-13.45 6.46-.88.15-1.78.26-2.7.33-.99.02-1.89.1-2.78.1zM915.281 1387.59c-3.854-.24-7.721-.2-11.57.11-1.69.15-3.363.45-5 .9 0 2.09.06 4.91.18 8.45.12 3.54.323 7.37.61 11.48 5.14.14 10.227.14 15.26 0 5.033-.14 9.967-.51 14.8-1.12a7.4 7.4 0 015.4 1.55 7.977 7.977 0 013.19 4.87c.226.9.253 1.85.081 2.76a6.462 6.462 0 01-1.081 2.55 5.87 5.87 0 01-1.964 1.79c-.784.45-1.658.7-2.556.75-8.016.89-16.075 1.33-24.14 1.32h-3.78c-1.27 0-2.53 0-3.8-.11.553 3.79 1.067 6.7 1.54 8.74.48 2 .84 3.48 1.07 4.29 1.06.15 2.87.3 5.45.45 2.58.15 6.34.11 11.29-.11 2-.08 3.88-.17 5.65-.28 1.77-.11 3.36-.23 4.75-.34l4.64-.39a7.401 7.401 0 015.4 1.56 8.171 8.171 0 013.2 4.9 6.362 6.362 0 01-1 5.24 6.156 6.156 0 01-2.003 1.85c-.798.47-1.688.74-2.607.82l-1.55.11-3.74.27-5.3.39c-2 .15-4.067.26-6.2.33-1.33.08-2.6.13-3.82.17-1.22.04-2.43.06-3.62.06-1 0-2 0-3-.06s-1.9-.06-2.79-.06c-5.507-.29-9.48-1.18-11.92-2.67a14.818 14.818 0 01-5.73-7.11c-.43-1.06-.803-2.14-1.12-3.23-.34-1.18-.71-2.52-1.08-4-.48-2.37-.95-5.03-1.41-8-.47-3-.86-6.3-1.18-10-.34-3.19-.607-6.39-.8-9.62-.2-3.23-.35-6.23-.47-9-.12-2.77-.19-5.26-.24-7.45-.05-2.19 0-3.87.07-5.06a8.891 8.891 0 011.3-4.45 11.499 11.499 0 013.28-3.45c.92-.61 1.902-1.11 2.93-1.5 1.221-.43 2.475-.77 3.75-1 2.18-.41 4.379-.71 6.59-.89 2.807-.24 5.625-.31 8.44-.23 2.52 0 5 .08 7.37.22s4.55.32 6.46.5c1.91.18 3.45.35 4.62.5 1.17.15 1.82.22 2 .22a8.335 8.335 0 015.14 2.76 7.21 7.21 0 011.54 2.45c.344.91.5 1.88.46 2.86a5.97 5.97 0 01-.579 2.6 5.99 5.99 0 01-1.651 2.1 6.62 6.62 0 01-2.461 1.3c-.903.26-1.849.33-2.779.2-1.74-.23-3.31-.41-4.74-.56-1.43-.15-3-.28-4.89-.39-1.89-.11-3.88-.26-5.89-.34zM1003.67 1451.07a7.837 7.837 0 01-4-1.12c-4.2-2.52-7.804-4.8-10.81-6.85-3.007-2.05-5.674-3.94-8-5.68-2.3-1.74-4.33-3.37-6.09-4.9a173.29 173.29 0 01-5.11-4.62c.12 2.6.31 5.27.57 8 .26 2.73.46 5.5.6 8.29.079.91-.039 1.83-.346 2.69a6.405 6.405 0 01-3.695 3.8c-.853.33-1.766.47-2.679.42a7.906 7.906 0 01-5.32-2.34 7.796 7.796 0 01-2.5-5.14c-.414-6-.86-11.76-1.34-17.28-.48-5.52-.99-10.85-1.53-16-.54-5.13-1.127-10.13-1.76-15-.634-4.87-1.32-9.72-2.06-14.55a6.424 6.424 0 011.35-5.19 6.243 6.243 0 012.063-1.69c.8-.42 1.678-.65 2.577-.7a85.103 85.103 0 0116.81.5c4.862.6 9.622 1.86 14.15 3.73a36.24 36.24 0 0110.74 6.69c2.99 2.78 5.08 6.4 6 10.38.21 1.21.32 2.45.34 3.68.02 1.55-.21 3.09-.68 4.57-.58 1.8-1.43 3.51-2.52 5.07-1.437 2-3.19 3.75-5.19 5.19a45.752 45.752 0 01-14 6.8 91.128 91.128 0 004.25 3.79c1.5 1.27 3.23 2.62 5.16 4.07 1.93 1.45 4.16 3 6.67 4.63s5.44 3.46 8.77 5.47c1.75.95 3.06 2.55 3.65 4.46a6.693 6.693 0 01-.47 5.46 5.595 5.595 0 01-2.35 2.51c-.99.55-2.11.85-3.25.86zm-38.49-63.37c.94 6.67 1.776 13.46 2.51 20.38a62.837 62.837 0 0011.72-3.39c2.204-.9 4.304-2.04 6.26-3.4 1.042-.77 1.96-1.69 2.72-2.73a3.167 3.167 0 00.74-2.39 5.562 5.562 0 00-1.88-2.51 16.851 16.851 0 00-4.92-2.84 49.004 49.004 0 00-17.15-3.12z" fill="#fff"></path></g><defs><linearGradient id="prefix__paint0_linear_1330_728" x1="491.117" y1="1100.03" x2="491.117" y2="1230.11" gradientUnits="userSpaceOnUse"><stop stop-color="#5D5D5D"></stop><stop offset="1" stop-color="#333232"></stop></linearGradient><linearGradient id="prefix__paint1_linear_1330_728" x1="1023.72" y1="1123.84" x2="1023.72" y2="1228.21" gradientUnits="userSpaceOnUse"><stop stop-color="#5D5D5D"></stop><stop offset="1" stop-color="#333232"></stop></linearGradient><linearGradient id="prefix__paint2_linear_1330_728" x1="686" y1="1173" x2="926" y2="1500" gradientUnits="userSpaceOnUse"><stop stop-color="#E5A72D"></stop><stop offset="1" stop-color="#C58301"></stop></linearGradient><linearGradient id="prefix__paint3_linear_1330_728" x1="810.925" y1="1295.03" x2="917.5" y2="1500" gradientUnits="userSpaceOnUse"><stop stop-color="#5D5D5D"></stop><stop offset="1" stop-color="#333232"></stop></linearGradient><clipPath id="prefix__clip0_1330_728"><path fill="#fff" d="M0 0h1500v1500H0z"></path></clipPath></defs>
    <path d="M775 1185c231.41 0 419-168.12 419-375.5 0-207.383-187.59-375.5-419-375.5-231.407 0-419 168.117-419 375.5 0 207.38 187.593 375.5 419 375.5z" fill="url(#prefix__body)"></path><path d="M775 1185c231.41 0 419-168.12 419-375.5 0-207.383-187.59-375.5-419-375.5-231.407 0-419 168.117-419 375.5 0 207.38 187.593 375.5 419 375.5z" stroke="#000" stroke-width="20"></path><defs><linearGradient id="prefix__body" x1="417" y1="495.5" x2="1096" y2="1147" gradientUnits="userSpaceOnUse"><stop stop-color="#BFC7FF"></stop><stop offset="1" stop-color="#8C95CF"></stop></linearGradient></defs>
    <path d="M764.05 841.24c31.337 0 56.74-25.404 56.74-56.74 0-31.337-25.403-56.74-56.74-56.74-31.337 0-56.74 25.403-56.74 56.74 0 31.336 25.403 56.74 56.74 56.74zM1048.19 841.24c31.34 0 56.74-25.404 56.74-56.74 0-31.337-25.4-56.74-56.74-56.74-31.34 0-56.74 25.403-56.74 56.74 0 31.336 25.4 56.74 56.74 56.74z" fill="#fff" stroke="#000" stroke-width="20" stroke-miterlimit="10"></path><path d="M746.05 779.5c7.18 0 13-5.82 13-13s-5.82-13-13-13-13 5.82-13 13 5.82 13 13 13zM1066.19 779.5c7.18 0 13-5.82 13-13s-5.82-13-13-13-13 5.82-13 13 5.82 13 13 13z" fill="#000"></path><path d="M831.28 968.72h168.82a5.495 5.495 0 015.5 5.5 89.32 89.32 0 01-89.32 89.32h-1.18a89.323 89.323 0 01-63.159-26.16 89.325 89.325 0 01-26.161-63.16 5.5 5.5 0 015.5-5.5z" fill="#fff" stroke="#000" stroke-width="20" stroke-miterlimit="10"></path>
    <path d="M1086 1014c0 39.21-75.66 71-169 71-93.336 0-169-31.76-169-71 0-39.241 75.664-101 169-101 93.34 0 169 61.788 169 101z" fill="url(#prefix__paint0_linear_3958_344)"></path><path d="M921 967c40.869 0 74-33.131 74-74s-33.131-74-74-74-74 33.131-74 74 33.131 74 74 74z" fill="url(#prefix__paint1_linear_3958_344)" stroke="#000" stroke-width="20"></path><path d="M1045 1016.27c0 42.37-55.325 76.73-123.509 76.73S798 1058.63 798 1016.27v-1.64c.892-25.725 25.066-41.87 45.973-31.384 21.194 10.616 48.187 16.974 77.482 16.974 29.296 0 56.307-6.358 77.5-16.984 20.905-10.476 45.115 5.669 45.975 31.394.05.54.07 1.09.07 1.64z" fill="#fff" stroke="#000" stroke-width="20"></path><defs><linearGradient id="prefix__paint0_linear_3958_344" x1="792.5" y1="965.188" x2="1019.41" y2="1112.35" gradientUnits="userSpaceOnUse"><stop stop-color="#A0A8E2"></stop><stop offset=".653" stop-color="#979FD9"></stop><stop offset=".777" stop-color="#949CD7"></stop><stop offset="1" stop-color="#939BD6"></stop></linearGradient><linearGradient id="prefix__paint1_linear_3958_344" x1="864.25" y1="824.36" x2="990.75" y2="977.36" gradientUnits="userSpaceOnUse"><stop stop-color="#FF9292"></stop><stop offset="1" stop-color="#FF2323"></stop></linearGradient></defs>
    <path d="M661.718 466.274s.681-50.314 11.212-50.049c10.53.266 30.241-4.165 30.241-4.165l31.002 15.989 25.638-5.424 28.99-24.747 27.071-1.791 27.883 14.121 15.447 18.681 23.41.145 50.96-13.954 24.276 23.68-19.232 52.574-44.507-21.369-17.617-6.041-23.175-7.036-28.05-1.943-32.388-.112-55.638 3.68-50.45 8.949-25.073-1.188z" fill="url(#prefix__paint0_linear_1330_408)"></path><path d="M718.505 479.214s19.322 40.453 64.014 34.31c44.692-6.143 83.522-32.583 83.522-32.583l10.406-17.065-81.463-14.775-84.096 14.041s-8.664 11.898 7.617 16.072z" fill="url(#prefix__paint1_linear_1330_408)"></path><path d="M662.843 469.488s-13.534-58.554 30.087-60.287c15.493-.614 25.434 4.992 32.226 12.21 13.894 14.755 29.392 7.707 38.346-2.386 11.842-13.391 27.482-26.021 44.854-27.17 20.226-1.338 34.215 14.393 42.889 29.474 6.094 10.621 21.799 13.651 33.204 6.683 11.953-7.315 28.35-12.9 48.081-8.683 42.964 9.245 6.064 69.091 6.064 69.091" stroke="#000" stroke-width="18.1" stroke-miterlimit="10" stroke-linecap="round"></path><path d="M630.048 507.636s25.276-45.068 51.452-39.634c40.502 8.395 74.399 69.733 74.399 69.733M800.818 537.27s38.761-65.501 93.251-67.301c54.49-1.801 48.429 57.93 48.429 57.93M682 468s137.21-40.275 226.409 2.982M736.795 506.5s35.104 14.655 86.489 1.675" stroke="#000" stroke-width="20" stroke-miterlimit="10" stroke-linecap="round"></path><path d="M413.471 637.74s31.25-51 65-78.31l186.28 18.06 110.25 1.92-5 27.29 24.79 61.35-131.51.36-159.57-15.47-90.24-15.2z" fill="url(#prefix__paint2_linear_1330_408)"></path><path d="M1138 641.169s-21.54-39.91-55.81-72.3l-78.39 86.25 134.2-13.95z" fill="url(#prefix__paint3_linear_1330_408)"></path><path d="M769.999 606.701s-7.37-98.2 30.91-126.2 57.09-32.77 57.09-32.77l30.76-13 11.11 8 8.32-50.66-17.59-87.61s27.23-22.93 41.6-6.28c14.37 16.65 28 69.35 28 69.35l16.43 158.76s6.82 44.31 45.121 26.12c38.3-18.19 39.13-20.4 39.13-20.4s29.77-27.73 38 15.07c0 0-8.82 21.31-41.34 48.87s-97.001 79.38-97.001 79.38-87.64 38-143.31 9.92-47.23-78.55-47.23-78.55z" fill="url(#prefix__paint4_linear_1330_408)"></path><path d="M810.478 533.291s7 20.74 22.59 18c13.94-2.49 9.79-24.72 9.79-24.72s-9.86-54.57-29.57-53.57c-11.09.59-30 28.17-34.41 39.05a95.97 95.97 0 00-5.94 23c-20.81 156.62 75.59 154.81 75.59 154.81 91.78 10 161.162-40.85 192.772-76.29a389.609 389.609 0 0143.41-41.76 437.84 437.84 0 007.5-6.28c21.33-18.21 2.08-52.62-24.56-43.85l-1.57.53a71.914 71.914 0 00-19.63 10.65c-12.33 9.34-22.74 15-31.43 18.29a28.433 28.433 0 01-13.06 1.675 28.43 28.43 0 01-21.513-13.902 28.433 28.433 0 01-3.839-12.593c-8.6-136.81-31.5-194.19-42.06-222.1a24 24 0 00-25.93-15.23 24.007 24.007 0 00-15.938 9.798 23.997 23.997 0 00-4.062 18.262c7.92 42.86 26.79 119.94 14.22 130.38" stroke="#000" stroke-width="20" stroke-miterlimit="10" stroke-linecap="round"></path><path d="M841.659 544.082s16.69 19.5 34.7 8c16-10.26 2.67-54-12.85-91.09a17.111 17.111 0 00-21.75-9.49 60.6 60.6 0 00-28.47 21.5" stroke="#000" stroke-width="20" stroke-miterlimit="10"></path><path d="M851.059 450.731s5.64-9 18.66-15.12a24.997 24.997 0 0133.07 11.85c6.62 13.88 15.6 36.16 23 66.84 3.92 16.35-8.12 32.42-24.93 32.82a60.765 60.765 0 01-18.8-2.78M800.909 669.342s-151.91 12.9-402.62-34.42M775 581.551s-224.24-4.09-314-25.85M991.449 655.401s71.741 0 155.701-18.61" stroke="#000" stroke-width="20" stroke-miterlimit="10"></path><defs><linearGradient id="prefix__paint0_linear_1330_408" x1="806.093" y1="396.734" x2="812.163" y2="482.301" gradientUnits="userSpaceOnUse"><stop stop-color="#9299D3"></stop><stop offset="1" stop-color="#929BD5"></stop></linearGradient><linearGradient id="prefix__paint1_linear_1330_408" x1="791.345" y1="449.342" x2="795.545" y2="512.836" gradientUnits="userSpaceOnUse"><stop stop-color="#8188BB"></stop><stop offset="1" stop-color="#4D5275"></stop></linearGradient><linearGradient id="prefix__paint2_linear_1330_408" x1="604.131" y1="559.43" x2="604.131" y2="668.41" gradientUnits="userSpaceOnUse"><stop stop-color="#FFABAB"></stop><stop offset="1" stop-color="#FF4A4A"></stop></linearGradient><linearGradient id="prefix__paint3_linear_1330_408" x1="1070.9" y1="568.869" x2="1070.9" y2="655.119" gradientUnits="userSpaceOnUse"><stop stop-color="#FFABAB"></stop><stop offset="1" stop-color="#FF4A4A"></stop></linearGradient><linearGradient id="prefix__paint4_linear_1330_408" x1="788.5" y1="364.502" x2="1029.5" y2="696.002" gradientUnits="userSpaceOnUse"><stop stop-color="#FACFAF"></stop><stop offset="1" stop-color="#D89E73"></stop></linearGradient></defs>
  </svg>