<svg class="•57" xmlns="http://www.w3.org/2000/svg" preserveAspectRatio="xMidYMin meet" fill="none" viewBox="0 0 1500 1500">
    <path fill="url(#prefix__a1)" d="M0 0h1500v1500H0z"></path><defs><linearGradient id="prefix__a1" x1="0" y1="0" x2="1500" y2="1500" gradientUnits="userSpaceOnUse"><stop stop-color="#57ECFF"></stop><stop offset="1" stop-color="#4E41EE"></stop></linearGradient></defs>
    <g clip-path="url(#prefix__prefix__prefix__clip0_316_2572)"><path d="M289.32 1500l15.53-112.58 30.68-117.3-17.14-45.59s-15-117.74 41.25-161c56.25-43.26 65.45-47.41 65.45-47.41s135.65 171.93 339 168.87c203.35-3.06 328.18-130.19 328.18-130.19l42-46.11 14.44 49.93L1133 1102l-10.73 32.19 38.38 53.64 56.12 125.69 16.09 69.9 16.92 63.54 13.61 53.09-974.07-.05z" fill="url(#prefix__prefix__prefix__paint0_linear_316_2572)"></path><path d="M512.15 1369.42a922.37 922.37 0 00-19 130.58h-20.89v-.72a926.03 926.03 0 0119.52-134.67 10.46 10.46 0 014.679-6.49 10.516 10.516 0 017.896-1.28c2.697.64 5.03 2.33 6.487 4.68a10.46 10.46 0 011.278 7.9h.03zM1132.47 1500h-21.11c-2.86-14.16-20.25-98.69-36.62-147.37-.45-1.3-.63-2.68-.55-4.06.09-1.37.45-2.72 1.06-3.95.61-1.24 1.46-2.34 2.49-3.25 1.04-.91 2.25-1.6 3.55-2.04 1.31-.44 2.69-.61 4.06-.52 1.38.1 2.72.47 3.95 1.08 1.24.62 2.33 1.47 3.23 2.52.9 1.04 1.59 2.25 2.02 3.56 18.26 54.27 36.94 148 37.72 152 .14.67.2 1.35.2 2.03zM429 1140.38c-36.78 29.35-63.66 67.4-79.87 113.1-55.72 157-49.44 244.8-49.37 245.66v.86h-20.9c-.68-10.16-4.54-98.23 50.55-253.51 17.54-49.43 46.65-90.63 86.53-122.45a10.661 10.661 0 013.648-2.06 10.469 10.469 0 018.172.75 10.5 10.5 0 013.211 2.69 10.528 10.528 0 011.898 3.74 10.454 10.454 0 01-1.104 8.13 10.449 10.449 0 01-2.825 3.09h.06zM1273.43 1500h-21.09c-2.38-11.9-15.44-75.74-36.39-146.32-30.24-101.86-62.93-171.34-94.54-200.93l-2.5-2.36a45.331 45.331 0 00-5.57-4.69 10.454 10.454 0 0112.68-16.62c2.59 1.88 5.04 3.95 7.33 6.19.61.59 1.35 1.3 2.34 2.22 34.83 32.6 68.59 103.39 100.34 210.41 23.4 78.86 37.08 149.42 37.21 150.12.13.65.19 1.32.19 1.98z" fill="#000"></path><path d="M425.09 1016.13S268 1075 329.32 1270.12m95.77-147.55s52.18 120.38 243.46 131m297.12-16.37s119-29.84 172-136.28c32.82-65.94-6.64-89.63-6.64-89.63" stroke="#000" stroke-width="20" stroke-miterlimit="10" stroke-linecap="round"></path><path d="M936.65 1489.14l3.931 26.42c.763 4.62.481 9.34-.825 13.84-3.604 12.26-12.489 12.79-12.489 12.79a33.533 33.533 0 01-14.381.06 39.958 39.958 0 01-14.033-5.94c-12.736-9.16-52.814-87.25-52.814-87.25l-41.878 86.54-37.317-.27 58.708-120.78-31.546-50.05a25.13 25.13 0 00-8.382-8.19c-3.285-2-7.021-3.13-10.861-3.29h-.605c-3.273-.39-6.591.08-9.63 1.35a16.35 16.35 0 00-7.107 5.84c-3.269 3.8-2.797 16.22-2.797 16.22l-7.596.5a102.958 102.958 0 01-3.944-22.71 29.57 29.57 0 013.392-16.14 19.518 19.518 0 017.734-8.22 21.976 21.976 0 0111.43-2.85c6.966.05 14.081 2.24 20.372 6.29a46.843 46.843 0 0115.343 16.19l31.057 56.31 38.203-74.5 33.968.25-52.492 104.93 22.975 40.23s18.714 38.81 37.308 38.95c18.594.13 16.322-26.61 16.322-26.61l7.954.09z" fill="#fff"></path></g><defs><linearGradient id="prefix__prefix__prefix__paint0_linear_316_2572" x1="386" y1="1050" x2="1222.5" y2="1500" gradientUnits="userSpaceOnUse"><stop stop-color="#535353"></stop><stop offset="1" stop-color="#272727"></stop></linearGradient><clipPath id="prefix__prefix__prefix__clip0_316_2572"><path fill="#fff" d="M0 0h1500v1500H0z"></path></clipPath></defs>
    <path d="M775 1185c231.41 0 419-168.12 419-375.5 0-207.383-187.59-375.5-419-375.5-231.407 0-419 168.117-419 375.5 0 207.38 187.593 375.5 419 375.5z" fill="url(#prefix__body)"></path><path d="M775 1185c231.41 0 419-168.12 419-375.5 0-207.383-187.59-375.5-419-375.5-231.407 0-419 168.117-419 375.5 0 207.38 187.593 375.5 419 375.5z" stroke="#000" stroke-width="20"></path><defs><linearGradient id="prefix__body" x1="417" y1="495.5" x2="1096" y2="1147" gradientUnits="userSpaceOnUse"><stop stop-color="#BFC7FF"></stop><stop offset="1" stop-color="#8C95CF"></stop></linearGradient></defs>
    <path d="M836.82 991.44C875.39 1030.65 950.17 1030.65 988.75 991.44" stroke="black" stroke-width="20" stroke-miterlimit="10" stroke-linecap="round"></path><path class="wakka" d="M821.63 792.38C814.483 783.22 805.342 775.811 794.902 770.715C784.462 765.618 772.997 762.97 761.38 762.97C749.762 762.97 738.298 765.618 727.857 770.715C717.417 775.811 708.276 783.22 701.13 792.38 M1109.25 792.38C1102.1 783.22 1092.96 775.811 1082.52 770.715C1072.08 765.618 1060.62 762.97 1049 762.97C1037.38 762.97 1025.92 765.618 1015.48 770.715C1005.04 775.811 995.897 783.22 988.75 792.38" stroke="black" stroke-width="20" stroke-miterlimit="10" stroke-linecap="round"></path>
    <path d="M695 882.42v6.14a7.746 7.746 0 01-.67 3.22c-1.26 2.86-3.34 3-3.34 3a7.817 7.817 0 01-6.39-1.32c-2.64-2.11-9.24-20.21-9.24-20.21l-12.71 20.21H654l17.8-28.21-5.59-11.59a4.654 4.654 0 00-4.07-2.64H662a4.713 4.713 0 00-4.13 1.7c-.89.89-1.21 3.78-1.21 3.78l-1.78.13a22.972 22.972 0 01-.13-5.28 7.776 7.776 0 011.34-3.76 5.694 5.694 0 014.83-2.61 7.816 7.816 0 014.51 1.43 8.67 8.67 0 013 3.74l5.26 13.05 11.44-17.4H693l-15.8 24.51 3.94 9.32s3 9 7.31 9 4.71-6.22 4.71-6.22l1.84.01z" fill="#000"></path>
    <path d="M276.36 892.87l5.15-57.71s19.71-62.82 22.75-74.13c3.04-11.31 8.7-32.2 15.23-44.81 6.53-12.61 12.18-23.93 19.58-37.85 7.4-13.92 13.42-31.37 16.93-35.68 3.51-4.31 8.3-19.14 8.3-19.14V434.498l10.2-35 197.32-84.408 188.38-35.24h212.31l17.99 23.148L1073 493.9l94.73 84.68s15.77 29.26 17.08 31c1.31 1.74 9.22 10.47 9.18 13.51-.04 3.04 4.31 7.84 6 10.45 1.69 2.61 8.7 10 10.44 12.61 1.74 2.61 8.7 10 11.31 14.8 2.61 4.8 3.48 4.78 6.09 11.74s3.92 9.57 7 17.4c3.08 7.83 5.22 12.62 5.22 12.62s-8.26 2.61-13.49 0-64.82-17.4-77-20.88c-12.18-3.48-12.18-3.92-34.37-3.48-22.19.44-48.29.87-53.51.43-5.22-.44-50.47-.87-67-1.3-16.53-.43-36.55-.44-36.55-.44l-96.58 6.53s-54 4.35-76.57 6.52c-22.57 2.17-47.86 7-57 10s-2.61 3.92-43.94 10-159.23 46.11-159.23 46.11L415.2 800.18l-83.53 39.59-29.58 23.5-25.73 29.6z" fill="url(#prefix__paint0_linear_363_46)"></path><path d="M362.69 914.781l-1.91-6.78s-9.39-28.19-13.14-64.29l-16.37 1s-16.93 9.73-24.8 17.26c-7.87 7.53-26.69 25.32-27.89 26.18-1.2.86-3.59 1.88 0 6s7 11.12 14.54 12.83c7.54 1.71 20.53 4.79 28.74 5 8.21.21 25.32-.85 28.91-.34s11.92 3.14 11.92 3.14z" fill="#4E4E4E"></path><path d="M1186 699.12s9.64 29.47 12.46 49.78l5.49 5.53s10.52-4.45 17-7.86a139.23 139.23 0 0017.2-10.53c3.7-2.82 11.12-8 11.41-9.27.29-1.27 1.44-12.95.83-14.34-.61-1.39-.68-2-11.88-7.83a206.613 206.613 0 00-23-9.78c-1.63-.74-26.39-3.41-26.39-3.41l-3.12 7.71z" fill="#2A2A2A"></path><path d="M373.46 917.09h-4.68c-56.19-.07-90.26-6.42-92.68-19.56-6.33-34.45 190.66-148 460.41-197.56s510.1-16.39 516.43 18.06c2.19 11.92-22 27.87-65.63 45.69" stroke="#000" stroke-width="20" stroke-miterlimit="10"></path><path d="M276.1 897.539l1-17.88a499.377 499.377 0 0181.09-246.72 24.218 24.218 0 003.89-15.35l3.69-190.4a30.9 30.9 0 0116.44-28.53l22.51-11.9c179.675-83.744 337.78-120.151 535.49-105.76l25.27 3.12a30.913 30.913 0 0125.52 20.88l81.9 182.72a24.306 24.306 0 008.74 11.85 499.295 499.295 0 01164 202.15l7.27 16.37" stroke="#000" stroke-width="20" stroke-miterlimit="10"></path><path d="M452.22 609.6c169.083-69.754 347.945-103.167 530.779-98.07H986" stroke="#000" stroke-width="20" stroke-miterlimit="10" stroke-linecap="round"></path><path d="M735.095 443.393l1.972 11.707a14.996 14.996 0 01-.243 6.356c-1.484 5.858-5.405 6.793-5.405 6.793a15.124 15.124 0 01-12.609-.464c-5.712-3.176-24.111-35.569-24.111-35.569l-17.743 42.62-16.494 2.778 24.879-59.509-14.382-20.304a8.99 8.99 0 00-8.609-3.726l-.267.045a9.129 9.129 0 00-7.329 4.568c-1.411 1.983-1.093 7.596-1.093 7.596l-3.352.82a44.476 44.476 0 01-1.944-10.026 15.029 15.029 0 011.347-7.6 11.012 11.012 0 018.372-6.529 15.127 15.127 0 019.059 1.278 16.771 16.771 0 016.922 6.168l14.222 23.194 16.224-36.853 15.007-2.528-22.255 51.811 10.507 16.506s8.612 16.197 16.83 14.813c8.218-1.385 6.983-13.373 6.983-13.373l3.512-.572z" fill="#fff"></path><defs><linearGradient id="prefix__paint0_linear_363_46" x1="375.5" y1="403" x2="1129" y2="784" gradientUnits="userSpaceOnUse"><stop stop-color="#535353"></stop><stop offset="1" stop-color="#292929"></stop></linearGradient></defs>
  </svg>