<svg class="•57" xmlns="http://www.w3.org/2000/svg" preserveAspectRatio="xMidYMin meet" fill="none" viewBox="0 0 1500 1500">
    <path fill="url(#prefix__a1)" d="M0 0h1500v1500H0z"></path><defs><linearGradient id="prefix__a1" x1="0" y1="0" x2="1500" y2="1500" gradientUnits="userSpaceOnUse"><stop stop-color="#57ECFF"></stop><stop offset="1" stop-color="#4E41EE"></stop></linearGradient></defs>
    <path d="M1263 1500H289.33l3.73-66.49 22.17-107.35L361 1203l57.62-67.7s38.18-26.49 102.86-54.62 195.37-13.16 195.37-13.16 198.15-21 351.31 38.59S1263 1500 1263 1500z" fill="url(#prefix__paint0_linear_316_3158)"></path><path d="M916.271 1335.92l-94.356 107.7c-2.295 2.61-6.431 2.73-9.239.26l-115.56-101.8c-2.486-2.19-3.139-5.73-1.546-8.38l30.022-49.87a6.06 6.06 0 012.152-2.09c.881-.5 1.875-.77 2.889-.79l139.951-3.94a7.31 7.31 0 013.091.65 7.177 7.177 0 012.502 1.93l39.941 47.9c2.118 2.55 2.185 6.11.153 8.43z" fill="url(#prefix__paint1_linear_316_3158)"></path><path d="M924.148 1325.84l-42.897-51.45a7.671 7.671 0 00-2.689-2.07 7.611 7.611 0 00-3.321-.7l-150.328 4.23c-1.09.02-2.157.31-3.104.85a6.456 6.456 0 00-2.31 2.24l-32.264 53.57c-1.713 2.86-1.007 6.65 1.658 9l124.143 109.35c3.015 2.65 7.459 2.53 9.923-.28l101.35-115.69c2.182-2.49 2.112-6.31-.166-9.05h.005zm-61.125-39.83l-20.577 34.13-27.333-32.78 47.91-1.35zm-33.683 39.58l-47.906 1.35 20.577-34.13 27.329 32.78zm-41.478-37.45l-20.577 34.13-27.333-32.78 47.91-1.35zm-61.017 6.76l27.334 32.8-47.892 1.35 20.558-34.15zm-15.836 48.07l53.164-1.5 34.646 78.83-87.81-77.33zm104.248 80.65l-36.291-82.57 55.695-1.56-19.404 84.13zm15.673-4.24l18.524-80.31 53.164-1.5-71.688 81.81zm25.684-94.56l20.577-34.13 27.315 32.79-47.892 1.34zM511.71 1369.31a922.235 922.235 0 00-19 130.69h-20v-.69a924.994 924.994 0 0119.51-134.6 9.975 9.975 0 014.513-6.07 9.94 9.94 0 017.473-1.17c2.549.6 4.759 2.18 6.157 4.39a10.01 10.01 0 011.317 7.45h.03zM1132 1500h-20.2c-2.81-13.91-20.24-98.71-36.65-147.51a9.998 9.998 0 01.4-7.74c.58-1.2 1.39-2.28 2.39-3.16 1-.88 2.16-1.55 3.42-1.98a10.087 10.087 0 017.74.57c1.18.61 2.24 1.44 3.1 2.46.86 1.02 1.5 2.2 1.9 3.47 18.25 54.24 36.92 148 37.71 151.94.13.64.19 1.3.19 1.95z" fill="#000"></path><path d="M1273 1500h-20.19c-4.9-24.54-57.1-278.34-131.07-347.58-76.33-71.44-231.58-74.83-235.22-74.9H587.29c-3.46.23-47.57 3.5-97.76 25.85-30.31 13.49-56.9 31.21-79 52.67-27.59 26.74-48.38 59.47-61.79 97.29-55.76 157.15-49.46 245-49.39 245.85v.82h-20c-.66-9.94-4.61-98 50.54-253.36 14.51-40.9 37.07-76.32 67.06-105.28 23.93-23.12 52.6-42.15 85.18-56.57 55.32-24.47 102.42-27.15 104.4-27.25h300.18c1.68 0 41.83.65 92.55 10.67 68.76 13.59 121.29 37 156.13 69.62 34.84 32.62 68.48 103.27 100.21 210.21 23.4 78.84 37.07 149.38 37.2 150.08.13.62.19 1.25.2 1.88z" fill="#000"></path><defs><linearGradient id="prefix__paint0_linear_316_3158" x1="635" y1="1082.5" x2="983.5" y2="1653" gradientUnits="userSpaceOnUse"><stop stop-color="#FCD6AB"></stop><stop offset="1" stop-color="#EF8B42"></stop></linearGradient><linearGradient id="prefix__paint1_linear_316_3158" x1="727.575" y1="1280.95" x2="871.392" y2="1447.26" gradientUnits="userSpaceOnUse"><stop stop-color="#58EBFF"></stop><stop offset="1" stop-color="#504EF1"></stop></linearGradient></defs>
    <path d="M775 1185c231.41 0 419-168.12 419-375.5 0-207.383-187.59-375.5-419-375.5-231.407 0-419 168.117-419 375.5 0 207.38 187.593 375.5 419 375.5z" fill="url(#prefix__body)"></path><path d="M775 1185c231.41 0 419-168.12 419-375.5 0-207.383-187.59-375.5-419-375.5-231.407 0-419 168.117-419 375.5 0 207.38 187.593 375.5 419 375.5z" stroke="#000" stroke-width="20"></path><defs><linearGradient id="prefix__body" x1="417" y1="495.5" x2="1096" y2="1147" gradientUnits="userSpaceOnUse"><stop stop-color="#BFC7FF"></stop><stop offset="1" stop-color="#8C95CF"></stop></linearGradient></defs>
    <path d="M836.82 991.44C875.39 1030.65 950.17 1030.65 988.75 991.44" stroke="black" stroke-width="20" stroke-miterlimit="10" stroke-linecap="round"></path><path class="wakka" d="M821.63 792.38C814.483 783.22 805.342 775.811 794.902 770.715C784.462 765.618 772.997 762.97 761.38 762.97C749.762 762.97 738.298 765.618 727.857 770.715C717.417 775.811 708.276 783.22 701.13 792.38 M1109.25 792.38C1102.1 783.22 1092.96 775.811 1082.52 770.715C1072.08 765.618 1060.62 762.97 1049 762.97C1037.38 762.97 1025.92 765.618 1015.48 770.715C1005.04 775.811 995.897 783.22 988.75 792.38" stroke="black" stroke-width="20" stroke-miterlimit="10" stroke-linecap="round"></path>
    <path opacity=".5" d="M650.33 766.53s-2.59-63.6 77.41-64.6c80-1 105.45 2.24 105.45 2.24l29.55 17.76 13 59.31s1 26 0 31.36c-1 5.36-25.33 41.83-25.33 41.83s-41.37 47.5-90.52 42-92.15-45.5-92.15-45.5-21-51.25-21.51-51.62c-.51-.37 4.1-32.78 4.1-32.78zM971.33 725.75s24.62-35.82 106.52-28.32c81.9 7.5 88.3 28.32 88.3 28.32s3.59-3.82 6.59 23.18 6 40 6 40-3 17-4 21-2.41 19-5.21 24-9 15.59-11.4 18.29c-2.4 2.7-11.94 13.84-20.67 20.77-8.73 6.93-28.37 15.28-30 16.61-1.63 1.33-10 8.21-17.32 7.26-7.32-.95-16.4 1.13-32.4.07-16-1.06-56.74-16.431-58.738-20.431-2-4-19-8.5-24-24.5s-7.902-19.909-9.582-23.489c-1.68-3.58-8.68-9.82-8.68-26.2s5-29.38 6-35.38c1-6 8.59-41.18 8.59-41.18z" fill="red"></path><path d="M681.5 720.5S687 709.23 739 703l97 169.89s-18 18.68-56.07 18.1L681.5 720.5zM756.58 700.12s-4.78 3.73 13-7.12L856 850.55s5.57 6.48-9 9.45l-90.42-159.88zM991.001 719.382s-1-21.754 50.999-28.382l97 180.731s-18 19.872-56.07 19.255l-91.929-171.604zM1059.58 700.12s-4.78 3.73 13.05-7.12L1159 850.55s5.57 6.48-9 9.45l-90.42-159.88z" fill="#fff" fill-opacity=".3"></path><path d="M722.89 697.43h79.71a72.647 72.647 0 0151.371 21.279 72.647 72.647 0 0121.279 51.371v13.85a112.497 112.497 0 01-32.951 79.549 112.497 112.497 0 01-159.098 0 112.497 112.497 0 01-32.951-79.549v-13.86a72.65 72.65 0 0172.64-72.64v0zM1028.89 697.43h79.71c19.27 0 37.75 7.654 51.37 21.279a72.627 72.627 0 0121.28 51.371v13.85a112.5 112.5 0 11-225 0v-13.86a72.65 72.65 0 0172.64-72.64zM874.6 792.43a68.92 68.92 0 0181.64 0M866 736h97M650.24 755.43l-266.5-60.5" stroke="#000" stroke-width="20" stroke-miterlimit="10"></path>
    <path d="M1294.36 589.74c21.14 26.76 22.63 46.39 25.92 73.14 3.56 28.84-.01 57.69-25.92 85.99-21.28 23.26-51.52 36.3-91.11 55.87.99-14.52-1-35.25-3.88-50.75 26.43-18.93 47.28-17.44 42.91-53.12-4.19-33.96-36.25-46.42-98.91-61.87l-201.05-19.15-232 20.5-294.5 59.5-64.5 33 .46-7c-53.43 29.1-70.64 50.43-66.57 83.65 3.43 27.8 19.18 22.03 63.18 39.38 3.67 25.62 9.9 53.19 13.81 62-109.44-27.14-143.21-51.93-149.88-106-3.3-26.75 1.42-71.2 26.5-100 25.63-29.36 43.06-40.24 93.63-66.91a733.43 733.43 0 0125.83-13L399.501 593l61-107.5 117.5-209.5-233.5 85c-20.167 3.667-55.9.9-37.5-39.5s160.333-133.5 229-175l98.5-92c22-15.833 72.8-36.3 100 8.5 27.2 44.8 84 153.667 109 202.5 7.333-4.167 27.5-2.7 49.5 36.5s77.166 91.333 102 112.5l91.999 86-12.72 7.34 7.91 12.55a826.4 826.4 0 0120.61 3.13c.94.274 1.91.436 2.89.48 19.74 3.333 38.7 7.22 56.88 11.66 55.53 13.61 99.87 31.81 131.79 54.08z" fill="url(#prefix__paint0_linear_316_1571)"></path><path d="M572.28 524.39L544 506.7l-28.28 17.69a2.995 2.995 0 01-3.321-.134 2.997 2.997 0 01-1.159-3.116l8.09-32.36-25.26-21.42a3.004 3.004 0 01-.914-3.213 3.002 3.002 0 012.624-2.067l33-2.3 12.47-30.94a3.126 3.126 0 012.77-1.684 3.118 3.118 0 012.77 1.684l12.47 30.94 33 2.3a3.005 3.005 0 012.625 2.067 3.002 3.002 0 01-.915 3.213l-25.26 21.42 8.09 32.36a2.999 2.999 0 01-4.52 3.25z" fill="url(#prefix__paint1_linear_316_1571)"></path><path d="M734 411.709l-15.64-29.46-33.36 1.19a3 3 0 01-2.26-5.06l23.19-24-11.17-31.18a3.001 3.001 0 014.12-3.71l29.7 14.51 26.27-20.56c1.92-1.5 5.13.36 4.8 2.78l-4.67 33 27.41 18.48a3.004 3.004 0 011.242 3.104 2.993 2.993 0 01-2.402 2.326l-32.59 5.92-9.17 32.07a3.002 3.002 0 01-4.273 1.792 2.997 2.997 0 01-1.237-1.222l.04.02z" fill="url(#prefix__paint2_linear_316_1571)"></path><path d="M890.1 490.36l9.9-31.85-24.33-22.82a2.996 2.996 0 012-5.17l33.35-.44 14.26-29.9a2.996 2.996 0 012.873-1.701 3.007 3.007 0 012.667 2.011l10.64 31.29 33.1 4.16a3.121 3.121 0 011.44 5.36l-26.73 20 6.2 32.47a3.007 3.007 0 01-1.329 3.056 2.997 2.997 0 01-3.331-.056l-27.17-19-29.22 16.08a3.002 3.002 0 01-4.29-3.5l-.03.01z" fill="url(#prefix__paint3_linear_316_1571)"></path><path d="M733 211.709l-15.64-29.46-33.36 1.19a3 3 0 01-2.26-5.06l23.19-24-11.17-31.18a3.001 3.001 0 014.12-3.71l29.7 14.51 26.27-20.56c1.92-1.5 5.13.36 4.8 2.78l-4.67 33 27.41 18.48a3.004 3.004 0 011.242 3.104 2.993 2.993 0 01-2.402 2.326l-32.59 5.92-9.17 32.07a3.002 3.002 0 01-4.273 1.792 2.997 2.997 0 01-1.237-1.222l.04.02z" fill="url(#prefix__paint4_linear_316_1571)"></path><path d="M427 333.709l-15.64-29.46-33.36 1.19a3 3 0 01-2.26-5.06l23.19-24-11.17-31.18a3.001 3.001 0 014.12-3.71l29.7 14.51 26.27-20.56c1.92-1.5 5.13.36 4.8 2.78l-4.67 33 27.41 18.48a3.004 3.004 0 011.242 3.104 2.993 2.993 0 01-2.402 2.326l-32.59 5.92-9.17 32.07a3.002 3.002 0 01-4.273 1.792 2.997 2.997 0 01-1.237-1.222l.04.02z" fill="url(#prefix__paint5_linear_316_1571)"></path><path d="M348.42 846.281c-25.82-10.39-61.32-31-63.07-43.16-.89-6.19 1.63-13.14 7.48-20.65 5.68-7.28 38.42-30.19 60.64-43.17 0 0-11.96 53.49-5.05 106.98zM1198.06 746.15c-4.93-27.29-14.85-57.46-26-82.85 34.65 12.3 55.07 12.7 56.76 24.46 16.91 38.14-11.23 44.1-30.76 58.39z" fill="#393CBC"></path><path d="M357.36 851c-41.74-13-65-25.49-68.05-46.62-9.31-65.15 196-140.45 458.69-168.13 262.69-27.68 483.27 2.62 492.64 67.76 3 21-13.55 30.71-49.42 47.09M1109 516.59S941.66 400.3 886.27 279.23a26.996 26.996 0 00-42-9.46c-25.9 21.87-69.49 47.74-128.86 44.9" stroke="#000" stroke-width="20" stroke-miterlimit="10" stroke-linecap="round"></path><path d="M844.27 269.77L731.57 66.18a55.588 55.588 0 00-85.12-15L311.51 316.06c-22.8 19.83-2.67 56.79 26.36 48.38l240.24-90.12M387.05 604s188-291.12 208.11-366.93" stroke="#000" stroke-width="20" stroke-miterlimit="10" stroke-linecap="round"></path><path d="M370.5 912.5C276 893 221.2 849.67 213.62 788.11c-14.27-115.64 221.25-239.75 526-277.3 304.75-37.55 563.41 25.85 577.67 141.48 7.6 61.7-12.64 102.12-119.81 154.21" stroke="#000" stroke-width="20" stroke-miterlimit="10"></path><defs><linearGradient id="prefix__paint0_linear_316_1571" x1="554.001" y1="95" x2="938.001" y2="911" gradientUnits="userSpaceOnUse"><stop stop-color="#58EBFF"></stop><stop offset="1" stop-color="#5052F1"></stop></linearGradient><linearGradient id="prefix__paint1_linear_316_1571" x1="544.02" y1="427.156" x2="544.02" y2="524.859" gradientUnits="userSpaceOnUse"><stop stop-color="#fff"></stop><stop offset="1" stop-color="#E0E3E3"></stop></linearGradient><linearGradient id="prefix__paint2_linear_316_1571" x1="732.809" y1="312.9" x2="732.809" y2="413.258" gradientUnits="userSpaceOnUse"><stop stop-color="#fff"></stop><stop offset="1" stop-color="#E0E3E3"></stop></linearGradient><linearGradient id="prefix__paint3_linear_316_1571" x1="925.881" y1="398.475" x2="925.881" y2="497.303" gradientUnits="userSpaceOnUse"><stop stop-color="#fff"></stop><stop offset="1" stop-color="#E0E3E3"></stop></linearGradient><linearGradient id="prefix__paint4_linear_316_1571" x1="731.809" y1="112.9" x2="731.809" y2="213.258" gradientUnits="userSpaceOnUse"><stop stop-color="#fff"></stop><stop offset="1" stop-color="#E0E3E3"></stop></linearGradient><linearGradient id="prefix__paint5_linear_316_1571" x1="425.809" y1="234.9" x2="425.809" y2="335.258" gradientUnits="userSpaceOnUse"><stop stop-color="#fff"></stop><stop offset="1" stop-color="#E0E3E3"></stop></linearGradient></defs>
  </svg>