<svg class="•57" xmlns="http://www.w3.org/2000/svg" preserveAspectRatio="xMidYMin meet" fill="none" viewBox="0 0 1500 1500">
    <g clip-path="url(#prefix__clip0_367_2)"><path fill="url(#prefix__paint0_linear_367_2)" d="M0 0h1500v1500H0z"></path><path d="M1613.52 1384.49l-119.94-142.29c-1.91-2.27-4.3-4.09-6.99-5.34a20.192 20.192 0 00-8.59-1.86c-2.96.02-5.89.69-8.57 1.96a20.212 20.212 0 00-6.93 5.41l-117.12 142.21a10.614 10.614 0 00-2.3 5.41c-.24 1.99.08 4 .94 5.81a10.567 10.567 0 009.53 6.06h84V1699h84.12v-297.11h83.75c2.02-.01 3.99-.58 5.69-1.67 1.7-1.08 3.05-2.63 3.9-4.46.85-1.82 1.16-3.86.9-5.85-.27-2-1.1-3.88-2.39-5.42zM253.354 1220.23l-79.519-94.45a13.287 13.287 0 00-4.633-3.54 13.34 13.34 0 00-5.696-1.24c-1.966.01-3.906.46-5.681 1.3a13.462 13.462 0 00-4.594 3.59l-77.653 94.4a7.059 7.059 0 00-1.527 3.59c-.16 1.32.056 2.66.623 3.86a6.995 6.995 0 002.58 2.92 6.908 6.908 0 003.741 1.1h55.691V1429h55.773v-197.22h55.527c1.337 0 2.645-.39 3.771-1.11a6.992 6.992 0 002.588-2.96c.563-1.21.77-2.56.594-3.88a7 7 0 00-1.585-3.6zM232.972 512.068l-97.971-117.143a16.52 16.52 0 00-5.708-4.391 16.406 16.406 0 00-14.017.079 16.521 16.521 0 00-5.659 4.454L13.944 512.149a8.779 8.779 0 00-1.114 9.233 8.694 8.694 0 003.179 3.629 8.595 8.595 0 004.61 1.362h68.613V771h68.715V526.393h68.412a8.605 8.605 0 004.646-1.37 8.7 8.7 0 003.188-3.67 8.783 8.783 0 00.732-4.822 8.747 8.747 0 00-1.953-4.463zM482.591 132.408l-68.097-80.344a11.472 11.472 0 00-3.967-3.012 11.534 11.534 0 00-9.743.054 11.468 11.468 0 00-3.934 3.055l-66.498 80.302a5.954 5.954 0 00-.775 6.333 5.979 5.979 0 002.209 2.489c.958.606 2.069.93 3.204.934h47.691V310h47.762V142.233h47.551a6.04 6.04 0 003.229-.939 5.999 5.999 0 002.216-2.518 5.949 5.949 0 00-.848-6.368zM390.972 870.856l-49.644-58.878a8.367 8.367 0 00-12.863.072l-48.48 58.847a4.376 4.376 0 00-.564 4.64 4.38 4.38 0 003.946 2.509h34.769V1001h34.819V878.056h34.666a4.389 4.389 0 003.97-2.533 4.376 4.376 0 00-.619-4.667zM1478.26 676.781l-35.58-42.625a6.05 6.05 0 00-2.08-1.598 5.89 5.89 0 00-2.54-.558c-.88.005-1.75.205-2.55.587-.79.381-1.49.935-2.05 1.621l-34.75 42.603a3.138 3.138 0 00-.69 1.62c-.07.595.03 1.198.28 1.739.26.542.66 1 1.16 1.321.5.321 1.08.493 1.67.495h24.92V771h24.96v-89.006h24.85c.6-.001 1.18-.174 1.69-.499.5-.324.9-.788 1.16-1.335.25-.548.34-1.156.26-1.755a3.157 3.157 0 00-.71-1.624zM1303.68 956.897l-63.7-76.05a10.69 10.69 0 00-12.83-2.8 10.766 10.766 0 00-3.68 2.892l-62.21 76.011a5.694 5.694 0 00-.72 5.994 5.608 5.608 0 002.07 2.357c.89.573 1.93.879 2.99.883h44.62V1125h44.68V966.197h44.48a5.588 5.588 0 003.02-.889 5.733 5.733 0 002.08-2.383 5.704 5.704 0 00-.8-6.028zM1397.52 112.485L1277.58-29.803a20.246 20.246 0 00-6.99-5.333A20.19 20.19 0 001262-37c-2.96.017-5.89.686-8.57 1.96a20.259 20.259 0 00-6.93 5.41l-117.12 142.214a10.6 10.6 0 00-2.3 5.41c-.24 1.985.08 3.998.94 5.805a10.54 10.54 0 003.89 4.409 10.563 10.563 0 005.64 1.653h84V427h84.12V129.886h83.75c2.02-.002 3.99-.58 5.69-1.664a10.57 10.57 0 003.9-4.458c.85-1.827 1.16-3.859.9-5.857a10.688 10.688 0 00-2.39-5.422z" fill="#fff" fill-opacity=".2"></path></g><defs><linearGradient id="prefix__paint0_linear_367_2" x1="0" y1="0" x2="1931.5" y2="2141.5" gradientUnits="userSpaceOnUse"><stop stop-color="#01FC98"></stop><stop offset="1" stop-color="#009459"></stop></linearGradient><clipPath id="prefix__clip0_367_2"><path fill="#fff" d="M0 0h1500v1500H0z"></path></clipPath></defs>
    <g clip-path="url(#prefix__clip0_1330_642)"><path d="M1263 1500H289.328l3.73-66.49 22.17-107.35 45.77-123.16 57.62-67.7s12.68-8.8 35.81-21.64c2.98-1.65 6.13-3.37 9.45-5.15l.27-.14a755.252 755.252 0 0133.91-17.06c7.333-3.49 15.14-7.04 23.42-10.63 64.69-28.13 195.37-13.16 195.37-13.16s177.58-18.86 326.462 29.72c6 1.95 11.92 4.01 17.78 6.19 2.36.87 4.72 1.77 7.06 2.68 11.17 4.4 21.77 10.13 31.58 17.07.26.17.49.35.75.53C1227.31 1213.61 1263 1500 1263 1500z" fill="url(#prefix__paint0_linear_1330_642)"></path><path d="M591.29 1499.91l-5.94-178.35 9.9-75.13-78-36.21-30.81-42.7-22.53-59.01 34.18-17.2 66.18 42.7 139.44 46.21 23.6 2.37 132.06-5.34 90.26-24.32 97.67-58.04 43.44 26.83-20.04 49.04-16.22 27.03-38.91 35.67-29.19 9.18 18.92 126.48-3.17 130.79H882.11l6.58-171.09L859.47 1185l-136.63 4.04-12.43 117.85 8.34 193.02H591.29z" fill="#fff"></path><path d="M944.701 1500c9.284 0 16.81-7.53 16.81-16.81 0-9.29-7.526-16.81-16.81-16.81-9.284 0-16.81 7.52-16.81 16.81 0 9.28 7.526 16.81 16.81 16.81zM655.56 1500c9.284 0 16.81-7.53 16.81-16.81 0-9.29-7.526-16.81-16.81-16.81-9.284 0-16.81 7.52-16.81 16.81 0 9.28 7.526 16.81 16.81 16.81zM944.701 1414.23c9.284 0 16.81-7.53 16.81-16.81 0-9.28-7.526-16.81-16.81-16.81-9.284 0-16.81 7.53-16.81 16.81 0 9.28 7.526 16.81 16.81 16.81zM649.072 1414.23c9.284 0 16.81-7.53 16.81-16.81 0-9.28-7.526-16.81-16.81-16.81-9.284 0-16.81 7.53-16.81 16.81 0 9.28 7.526 16.81 16.81 16.81zM939.271 1323.7c9.284 0 16.81-7.53 16.81-16.81 0-9.29-7.526-16.81-16.81-16.81-9.284 0-16.81 7.52-16.81 16.81 0 9.28 7.526 16.81 16.81 16.81zM649.072 1323.7c9.284 0 16.81-7.53 16.81-16.81 0-9.29-7.526-16.81-16.81-16.81-9.284 0-16.81 7.52-16.81 16.81 0 9.28 7.526 16.81 16.81 16.81zM927.888 1229.86c9.284 0 16.81-7.53 16.81-16.81 0-9.29-7.526-16.81-16.81-16.81-9.284 0-16.81 7.52-16.81 16.81 0 9.28 7.526 16.81 16.81 16.81zM652.072 1229.86c9.284 0 16.81-7.53 16.81-16.81 0-9.29-7.526-16.81-16.81-16.81-9.284 0-16.81 7.52-16.81 16.81 0 9.28 7.526 16.81 16.81 16.81zM1015.43 1172.77c9.28 0 16.81-7.53 16.81-16.81 0-9.29-7.53-16.81-16.81-16.81-9.28 0-16.809 7.52-16.809 16.81 0 9.28 7.529 16.81 16.809 16.81zM559.322 1172.77c9.284 0 16.81-7.53 16.81-16.81 0-9.29-7.526-16.81-16.81-16.81-9.284 0-16.81 7.52-16.81 16.81 0 9.28 7.526 16.81 16.81 16.81z" fill="#000"></path><path d="M718.751 1499.91l-8.56-126.02 7.78-138.64 9.34-52.66h95.36l36.7-5.34 23.9 76.05.58 201.47-1.74 45.14h-163.36z" fill="url(#prefix__paint1_linear_1330_642)"></path><path d="M511.711 1369.31a922.445 922.445 0 00-19 130.69h-20v-.69a924.994 924.994 0 0119.51-134.6 10.03 10.03 0 014.513-6.07 10.03 10.03 0 017.473-1.17c2.549.6 4.759 2.18 6.157 4.39a10.01 10.01 0 011.317 7.45h.03zM1132 1500h-20.2c-2.81-13.91-20.24-98.71-36.65-147.51a9.998 9.998 0 012.79-10.89c1-.89 2.16-1.56 3.42-1.98a9.97 9.97 0 017.74.57c1.18.6 2.24 1.44 3.1 2.45.86 1.02 1.5 2.2 1.9 3.47 18.25 54.24 36.92 148 37.71 151.94.13.64.19 1.3.19 1.95z" fill="#000"></path><path d="M1273 1500h-20.19c-4.9-24.54-57.1-278.34-131.07-347.58-76.33-71.44-231.579-74.83-235.219-74.9H587.29c-3.46.23-47.569 3.5-97.759 25.85-30.31 13.49-56.9 31.21-79 52.67-27.59 26.74-48.38 59.47-61.79 97.29-55.76 157.15-49.46 245-49.39 245.85v.82h-20c-.66-9.94-4.61-98 50.54-253.36 14.51-40.9 37.07-76.32 67.06-105.28 23.93-23.12 52.6-42.15 85.18-56.57 55.32-24.47 102.42-27.15 104.4-27.25h300.18c1.68 0 41.83.65 92.55 10.67 68.759 13.59 121.289 37 156.129 69.62 34.84 32.62 68.48 103.27 100.21 210.21 23.4 78.84 37.07 149.38 37.2 150.08.13.62.19 1.25.2 1.88z" fill="#000"></path><path d="M603.64 1254.81c-5.34 28.51-20.93 129.2-1.19 245.1a.272.272 0 000 .09h-20.27c-19.12-115.78-4.17-216.29 1.52-247.31-66.68-21.51-98.4-59.83-113.29-88.3a150.094 150.094 0 01-14.85-43.17c-.5-2.86-.85-5.4-1.1-7.56a76.868 76.868 0 01-.55-8.25h20c0 .06 0 1.94.36 5.21a127.404 127.404 0 0014.35 45.38c19.39 36.4 53.93 62.68 102.67 78.08a18.192 18.192 0 0110.113 8.02 18.165 18.165 0 012.237 12.71zM720.821 1292.62c-3.12 83.84 6.37 180.46 9.25 207.29.005.03.005.06 0 .09h-20.07v-.09c-3.53-32.59-13.83-139.35-8.15-227.3 0-.43.06-.87.08-1.3 1.69-25.28 4.7-49 9.59-68.81.37-1.49.74-3 1.13-4.41a166.034 166.034 0 015.28-16.45c.037-.08.071-.16.1-.25l.92.36 8 3.1 9.73 3.76c-4 10.3-7.09 22.7-9.48 36.55-.06.37-.13.74-.2 1.12-3.17 18.81-5 40.22-6 62.65l-.18 3.69zM898.571 1399.65c-.74 46.9-4.4 83.54-6.38 100.26a.339.339 0 000 .09h-20.19a.272.272 0 000-.09c3-25 11.93-113.19 2-208.3 0-.25 0-.49-.07-.73-2.12-20.19-5.08-40.68-9.13-60.94-.32-1.6-.653-3.2-1-4.8-2.81-13.5-6.13-26.88-10-40-.2-.69-.4-1.37-.61-2.06l7.27-2.19 11.87-3.58c2.16 7.16 4.38 15.18 6.56 24.07.11.42.21.84.32 1.27a637.185 637.185 0 0112.3 66.62v.35c4.85 35.99 7.85 79.22 7.06 130.03zM1100.61 1123.32c0 .13 0 .27-.07.4-.58 3.55-1.25 7.04-2 10.45-7.34 32.37-23.28 58.7-47.45 78.39a148.947 148.947 0 01-55.222 27.92c23.402 101.59 18.242 225.1 16.202 259.52h-20.072v-.09c1.86-31.92 7.2-157.43-16-256.59a18.27 18.27 0 012.213-13.63 18.289 18.289 0 0111.117-8.18 128.672 128.672 0 0049.132-24.46c22.16-18 36.24-42.86 41.9-73.76.2-1 .38-2.11.55-3.17l9.87 1.6 9 1.46.83.14z" fill="#000"></path><path d="M811.592 1295.61l35.42-55.38 37.22-70.45 82.72-26.77-30.92 70.04-53.23 67.34-36.39 43.31-39.13-16.81-32.28 8.13-21.49 4-62.04-57.33-52.5-71.93-6.71-27.11 71.45 17.57 20.85 41.91 57.54 67.95 29.49 5.53z" fill="url(#prefix__paint2_linear_1330_642)"></path><path d="M799.449 1425.08c34.004 0 61.57-27.56 61.57-61.57 0-34-27.566-61.57-61.57-61.57-34.004 0-61.57 27.57-61.57 61.57 0 34.01 27.566 61.57 61.57 61.57z" fill="url(#prefix__paint3_linear_1330_642)" stroke="#000" stroke-width="20" stroke-miterlimit="10"></path><path d="M815.399 1386.61l-15.333-8.17-14.067 10.27c-.252.18-.55.28-.859.29-.308.01-.612-.07-.874-.24a1.568 1.568 0 01-.716-1.58l3.006-17.16-13.921-10.22a1.605 1.605 0 01-.542-.73 1.577 1.577 0 01.416-1.69c.229-.21.514-.35.819-.39l17.053-2.43 5.335-16.57c.117-.28.308-.51.55-.69.243-.17.529-.27.827-.3.297-.02.595.04.86.18.265.14.488.34.644.6l7.627 15.67h17.219c.31 0 .613.09.869.27.257.17.456.42.573.7.117.29.145.61.083.91-.063.31-.215.58-.436.8l-12.337 12.1 5.403 16.55c.093.3.097.61.011.91-.086.3-.258.56-.494.76-.237.2-.527.33-.834.36a1.53 1.53 0 01-.892-.16l.01-.04z" fill="#000"></path><path d="M799.449 1291.94s37.84-28.78 84.78-120.16M847.41 1326.7s91.44-103.21 120.36-184.15M799.45 1291.94s-61-43.61-90.13-112.72M625.262 1159.92s55.35 117 124.25 161.1" stroke="#000" stroke-width="20" stroke-miterlimit="10"></path></g><defs><linearGradient id="prefix__paint0_linear_1330_642" x1="563.5" y1="1064" x2="1116" y2="1904.5" gradientUnits="userSpaceOnUse"><stop stop-color="#57E9FF"></stop><stop offset="1" stop-color="#4F47EF"></stop></linearGradient><linearGradient id="prefix__paint1_linear_1330_642" x1="748" y1="1177" x2="865.5" y2="1500" gradientUnits="userSpaceOnUse"><stop stop-color="#B8C0F9"></stop><stop offset="1" stop-color="#929AD5"></stop></linearGradient><linearGradient id="prefix__paint2_linear_1330_642" x1="799.607" y1="1143.01" x2="799.607" y2="1323.7" gradientUnits="userSpaceOnUse"><stop stop-color="#FF738A"></stop><stop offset="1" stop-color="#EA1F2B"></stop></linearGradient><linearGradient id="prefix__paint3_linear_1330_642" x1="756" y1="1302" x2="829.5" y2="1425" gradientUnits="userSpaceOnUse"><stop stop-color="#FFEC43"></stop><stop offset="1" stop-color="#E47916"></stop></linearGradient><clipPath id="prefix__clip0_1330_642"><path fill="#fff" d="M0 0h1500v1500H0z"></path></clipPath></defs>
    <path d="M775 1185c231.41 0 419-168.12 419-375.5 0-207.383-187.59-375.5-419-375.5-231.407 0-419 168.117-419 375.5 0 207.38 187.593 375.5 419 375.5z" fill="url(#prefix__body)"></path><path d="M775 1185c231.41 0 419-168.12 419-375.5 0-207.383-187.59-375.5-419-375.5-231.407 0-419 168.117-419 375.5 0 207.38 187.593 375.5 419 375.5z" stroke="#000" stroke-width="20"></path><defs><linearGradient id="prefix__body" x1="417" y1="495.5" x2="1096" y2="1147" gradientUnits="userSpaceOnUse"><stop stop-color="#BFC7FF"></stop><stop offset="1" stop-color="#8C95CF"></stop></linearGradient></defs>
    <path d="M836.82 991.44C875.39 1030.65 950.17 1030.65 988.75 991.44" stroke="black" stroke-width="20" stroke-miterlimit="10" stroke-linecap="round"></path><path class="wakka" d="M821.63 792.38C814.483 783.22 805.342 775.811 794.902 770.715C784.462 765.618 772.997 762.97 761.38 762.97C749.762 762.97 738.298 765.618 727.857 770.715C717.417 775.811 708.276 783.22 701.13 792.38 M1109.25 792.38C1102.1 783.22 1092.96 775.811 1082.52 770.715C1072.08 765.618 1060.62 762.97 1049 762.97C1037.38 762.97 1025.92 765.618 1015.48 770.715C1005.04 775.811 995.897 783.22 988.75 792.38" stroke="black" stroke-width="20" stroke-miterlimit="10" stroke-linecap="round"></path>
    <path d="M1086 1008c0 42.53-75.66 77-169 77-93.336 0-169-34.44-169-77 0-42.557 75.664-77 169-77 93.34 0 169 34.474 169 77z" fill="url(#prefix__paint0_linear_316_2248)"></path><path opacity=".4" d="M763.61 879.811a95.542 95.542 0 0095.03-86.218 95.54 95.54 0 10-95.03 86.218z" fill="#fff"></path><path opacity=".3" d="M689.63 721.059s-.87-20.09 44.55-26.2l84.73 166.84s-15.72 18.34-49 17.77l-80.28-158.41zM749.001 692.238s-4.17 3.66 11.36-7l75.12 154.61s4.85 6.36-7.86 9.28l-78.62-156.89z" fill="#fff"></path><path d="M624.5 770l43-1.5 2 36-43-2-2-32.5z" fill="url(#prefix__paint1_linear_316_2248)"></path><path d="M763.589 879.811c52.771 0 95.55-42.779 95.55-95.55 0-52.771-42.779-95.55-95.55-95.55-52.771 0-95.55 42.779-95.55 95.55 0 52.771 42.779 95.55 95.55 95.55zM667.999 768.289h-29a18.14 18.14 0 100 36.28h29" stroke="#000" stroke-width="20" stroke-miterlimit="10"></path><path d="M568 978.311l42-43a44.635 44.635 0 0012.599-34.107 44.644 44.644 0 00-5.055-17.887 44.639 44.639 0 00-11.904-14.276v0a44.603 44.603 0 01-17.046-36.128 44.609 44.609 0 0118.716-35.292l11.83-8.43" stroke="#000" stroke-width="20" stroke-miterlimit="10" stroke-linecap="round"></path><path d="M829 959l-39.5 26 14.5 12h25c5.5 0 24 3.5 35.5 4s12.5-4 18.5-4 13-7 15.5-8c2-.8 6.167-6.333 8-9l12-8.5c1.167 1.333 4.1 4 6.5 4 3 0 4 6 8 9.5s25.5 9.5 34 12c6.8 2 11.5.833 13 0h32c2.5 0 11 .5 11 0s8-2.5 12.5-2.5h10.5V985c-2.5-2.5-8.1-7.9-10.5-9.5-3-2-8-6.5-12.5-10s-11-10-16-14c-4-3.2-6.33-5.667-7-6.5l-11-11.5-11.5-12-6.5-5-16-3-26 14-22.5 2.5-14.5-13.5h-15l-24 11-24 31.5z" fill="url(#prefix__paint2_linear_316_2248)"></path><path d="M1052.26 992.43c-26.4 7.9-93.78 23.19-125.16-14.7-14.91-18-11-45.15 9-57.32a43.46 43.46 0 0123-6.38c15.4 0 25.82 10.32 32.59 21.5a109.732 109.732 0 0050.81 44.54l10.2 4.32c.81.344 1.5.929 1.96 1.676.47.747.69 1.619.64 2.499a4.183 4.183 0 01-.91 2.413 4.266 4.266 0 01-2.13 1.452v0z" stroke="#000" stroke-width="20" stroke-miterlimit="10" stroke-linecap="round"></path><path d="M783.87 992.43c26.4 7.9 93.78 23.19 125.17-14.7 14.9-18 11-45.15-9-57.32A43.46 43.46 0 00877 914c-15.4 0-25.82 10.32-32.59 21.5a109.78 109.78 0 01-50.81 44.54l-10.21 4.32a4.282 4.282 0 00-2.628 4.206 4.283 4.283 0 003.108 3.864z" stroke="#000" stroke-width="20" stroke-miterlimit="10" stroke-linecap="round"></path><defs><linearGradient id="prefix__paint0_linear_316_2248" x1="792.5" y1="955.062" x2="1029.94" y2="1097.05" gradientUnits="userSpaceOnUse"><stop stop-color="#9EA6E0"></stop><stop offset=".519" stop-color="#979FD9"></stop><stop offset=".777" stop-color="#949CD7"></stop><stop offset="1" stop-color="#939BD6"></stop></linearGradient><linearGradient id="prefix__paint1_linear_316_2248" x1="624" y1="771.5" x2="673" y2="799" gradientUnits="userSpaceOnUse"><stop stop-color="#FAFF00"></stop><stop offset="1" stop-color="#DDA20B"></stop></linearGradient><linearGradient id="prefix__paint2_linear_316_2248" x1="918" y1="923" x2="915" y2="1003.5" gradientUnits="userSpaceOnUse"><stop stop-color="#fff"></stop><stop offset="1" stop-color="#C2C2C2"></stop></linearGradient></defs>
    <path d="M365.32 719.27L347 619.12 264.5 384l20.57-6.1L332 414.84l88.86 26.3 57 2.59 56.82-19.5L594.83 389l47.09-45 22.91-46.4L693 216l18.81 6.18L768 325.5l72.43 45.6 68.14 17.24 67.3-1.57 59.54-18.87 86.59-59.4 22.17-22.57 7.58 19.47-24.39 229.29 16.42 84.43-167.56-10.55-177 10.55-256.83 44.36L392.05 709l-26.73 10.27z" fill="url(#prefix__paint0_linear_1330_322)"></path><path d="M693 207.5a38.004 38.004 0 0035.107-23.458 37.994 37.994 0 00-8.237-41.412A37.998 37.998 0 00655 169.5a38.001 38.001 0 0038 38zM1160 285.5c8.31 0 16.43-2.463 23.33-7.078a41.992 41.992 0 0017.86-43.116 42.012 42.012 0 00-11.49-21.504 42.032 42.032 0 00-21.51-11.495 41.976 41.976 0 00-24.26 2.39 41.947 41.947 0 00-18.85 15.469A41.962 41.962 0 001118 243.5a41.986 41.986 0 0012.3 29.699A42.01 42.01 0 001160 285.5zM255 384.5a41 41 0 10-.001-81.998A41 41 0 00255 384.5z" fill="#57DFFF"></path><path d="M719 478.5c17.67 0 32-26 32-58s-14.33-58-32-58-32 26-32 58 14.33 58 32 58z" fill="url(#prefix__paint1_linear_1330_322)"></path><path d="M453 280.5a45 45 0 100-90.002 45 45 0 000 90.002zM949 223.5a45 45 0 100-90.002 45 45 0 000 90.002z" fill="#3EB9EA"></path><path d="M409.609 437.809l34.39-75.3 15-64.91 1.52-22.099 34.98 26.999 43.8 34.7 59.7 33.9 1.25 13.4-65.68 39.73-74.05 19.5-50.91-5.92z" fill="url(#prefix__paint2_linear_1330_322)"></path><path d="M815.711 355.85l68.29-58.25 61.499-80.1 21.181 39.6 40.139 68.51 28.59 42.29-79.409 23.6-69.93-7.65-70.36-28z" fill="url(#prefix__paint3_linear_1330_322)"></path><path d="M365.319 719.279s337-143.17 774.301-103.93l-12.26-80.66s-344.861-73.69-775.741 97.86l13.7 86.73z" stroke="#000" stroke-width="20" stroke-miterlimit="10"></path><path d="M1127.36 534.691l25.06-235.54c.26-2.45-.25-4.921-1.45-7.07a11.856 11.856 0 00-5.27-4.932 11.895 11.895 0 00-13.55 2.352l-32.5 32.72c-106.14 106.83-284.65 84.41-361.05-45.34l-28.77-48.88a11.904 11.904 0 00-11.504-5.79 11.897 11.897 0 00-10.036 8.07l-15.43 46.36c-50.81 152.62-233.72 214-366.28 122.82l-16.78-11.46c-9.46-6.5-21.74 2.84-18 13.69l79.81 230.88" stroke="#000" stroke-width="20" stroke-miterlimit="10"></path><path d="M405.85 443.729s44.35-65 53.85-151.8a11.89 11.89 0 0120.23-7.14c26.7 26.69 73.67 73 136.62 92.58M1043.52 370.1s-57.829-55.49-86.869-138a11.889 11.889 0 00-21.29-2.4c-20.36 32.46-62.57 91.21-119.65 125.3M693 214.5a45 45 0 100-90.002 45 45 0 000 90.002v0zM255.5 389a45 45 0 100-90.002 45 45 0 000 90.002zM453.5 280a45 45 0 100-90.002 45 45 0 000 90.002z" stroke="#000" stroke-width="20" stroke-miterlimit="10"></path><path d="M948.5 224a45 45 0 100-90.002 45 45 0 000 90.002v0zM1160.5 289a44.995 44.995 0 0041.57-27.779 45.023 45.023 0 002.57-26 45.063 45.063 0 00-12.32-23.041 44.98 44.98 0 00-23.04-12.315 44.991 44.991 0 00-26 2.56 45.056 45.056 0 00-20.2 16.574A45.037 45.037 0 001115.5 244a44.996 44.996 0 0045 45zM724.831 481.742c19.15-2 31.86-30.42 28.37-63.44-3.49-33.02-21.84-58.13-41-56.11-19.16 2.02-31.86 30.43-28.37 63.44 3.49 33.01 21.84 58.14 41 56.11z" stroke="#000" stroke-width="20" stroke-miterlimit="10"></path><defs><linearGradient id="prefix__paint0_linear_1330_322" x1="708.125" y1="216" x2="766.5" y2="834" gradientUnits="userSpaceOnUse"><stop stop-color="#57E7FF"></stop><stop offset="1" stop-color="#4F4AEF"></stop></linearGradient><linearGradient id="prefix__paint1_linear_1330_322" x1="719" y1="362.5" x2="719" y2="478.5" gradientUnits="userSpaceOnUse"><stop stop-color="#4FFFBA"></stop><stop offset="1" stop-color="#15C37E"></stop></linearGradient><linearGradient id="prefix__paint2_linear_1330_322" x1="504.929" y1="257.614" x2="553" y2="520.5" gradientUnits="userSpaceOnUse"><stop stop-color="#3AC3E8"></stop><stop offset="1" stop-color="#5275F4"></stop></linearGradient><linearGradient id="prefix__paint3_linear_1330_322" x1="925.561" y1="199" x2="926" y2="481.5" gradientUnits="userSpaceOnUse"><stop stop-color="#3AC3E8"></stop><stop offset="1" stop-color="#5275F4"></stop></linearGradient></defs>
  </svg>